<svg width="30" height="34" viewBox="0 0 30 34" fill="none" xmlns="http://www.w3.org/2000/svg">
<path d="M29.2145 22.4517L26.2115 19.3749V11.7934C26.2514 8.97804 25.2903 6.24306 23.5056 4.09341C21.7208 1.94377 19.233 0.524643 16.5015 0.098079C14.9163 -0.114634 13.3047 0.019569 11.7744 0.491734C10.244 0.963898 8.83014 1.76317 7.627 2.83621C6.42386 3.90925 5.45915 5.23139 4.79725 6.71441C4.13534 8.19743 3.79145 9.80723 3.78853 11.4364V19.3749L0.785463 22.4517C0.408254 22.8425 0.152455 23.3378 0.0500445 23.8759C-0.0523657 24.414 0.00315659 24.9708 0.20967 25.4769C0.416183 25.983 0.764526 26.4159 1.21115 26.7213C1.65777 27.0268 2.18286 27.1914 2.72078 27.1944H8.32651V27.7724C8.40444 29.4981 9.1506 31.122 10.4015 32.2882C11.6524 33.4544 13.306 34.0678 15 33.994C16.694 34.0678 18.3476 33.4544 19.5985 32.2882C20.8494 31.122 21.5956 29.4981 21.6735 27.7724V27.1944H27.2792C27.8171 27.1914 28.3422 27.0268 28.7888 26.7213C29.2355 26.4159 29.5838 25.983 29.7903 25.4769C29.9968 24.9708 30.0524 24.414 29.95 23.8759C29.8475 23.3378 29.5917 22.8425 29.2145 22.4517ZM18.3367 27.7724C18.2442 28.5901 17.8456 29.3398 17.2241 29.8655C16.6025 30.3911 15.8058 30.6522 15 30.5942C14.1942 30.6522 13.3975 30.3911 12.7759 29.8655C12.1544 29.3398 11.7558 28.5901 11.6633 27.7724V27.1944H18.3367V27.7724Z" fill="#B0B8C0"/>
</svg>
