<svg width="40" height="40" viewBox="0 0 40 40" fill="none" xmlns="http://www.w3.org/2000/svg">
<path d="M20 0C8.955 0 0 8.955 0 20C0 31.045 8.955 40 20 40C31.045 40 40 31.045 40 20C40 8.955 31.045 0 20 0ZM29.265 14.4675L19.685 29.11C19.6825 29.1125 19.6775 29.115 19.6775 29.1175C19.6275 29.1925 19.6 29.2775 19.5375 29.3475C19.45 29.4425 19.3375 29.4925 19.2375 29.565C19.2125 29.5825 19.1875 29.6025 19.16 29.62C19.005 29.7175 18.845 29.7825 18.67 29.825C18.6125 29.84 18.56 29.855 18.5 29.865C18.3608 29.8842 18.2197 29.8858 18.08 29.87C17.9814 29.8638 17.8835 29.8487 17.7875 29.825C17.6885 29.7951 17.5923 29.7567 17.5 29.71C17.42 29.6725 17.335 29.6625 17.26 29.615C17.205 29.58 17.175 29.525 17.1275 29.4825C17.1075 29.465 17.0825 29.46 17.0625 29.4425L11.485 24.285C11.1544 23.9676 10.9615 23.5331 10.9478 23.0749C10.9342 22.6168 11.1008 22.1716 11.4118 21.835C11.7229 21.4984 12.1536 21.2972 12.6114 21.2748C13.0692 21.2524 13.5175 21.4104 13.86 21.715L17.8975 25.45L26.335 12.5525C26.5889 12.164 26.9868 11.8922 27.4411 11.797C27.8955 11.7019 28.369 11.7911 28.7575 12.045C29.146 12.2989 29.4178 12.6968 29.513 13.1511C29.6081 13.6055 29.5189 14.079 29.265 14.4675Z" fill="#629AF9"/>
</svg>
