<svg width="40" height="40" viewBox="0 0 40 40" fill="none" xmlns="http://www.w3.org/2000/svg">
<path d="M38.64 4.55341L26.64 0.111706H26.5C26.4069 0.101316 26.3131 0.101316 26.22 0.111706H25.76H25.5H25.36L14 4.44237L2.64001 0.111706C2.33924 0.00157773 2.01921 -0.0276625 1.70628 0.0263919C1.39334 0.0804463 1.09644 0.21625 0.840007 0.422626C0.581523 0.626981 0.370537 0.896696 0.224476 1.20949C0.0784159 1.52228 0.00147391 1.86918 6.66707e-06 2.22152V33.3134C-0.00107566 33.779 0.129645 34.2332 0.37369 34.6118C0.617736 34.9904 0.962764 35.2743 1.36001 35.4233L13.36 39.865C13.7629 40.0108 14.1971 40.0108 14.6 39.865L26 35.6453L37.36 39.976C37.5724 40.008 37.7876 40.008 38 39.976C38.4182 39.9825 38.8264 39.834 39.16 39.554C39.4185 39.3497 39.6295 39.08 39.7755 38.7672C39.9216 38.4544 39.9985 38.1075 40 37.7552V6.66322C40.0011 6.19763 39.8704 5.74344 39.6263 5.36485C39.3823 4.98625 39.0372 4.7024 38.64 4.55341ZM12 34.6682L4.00001 31.7144V5.3085L12 8.26223V34.6682ZM24 31.7144L16 34.6682V8.26223L24 5.3085V31.7144ZM36 34.6682L28 31.7144V5.3085L36 8.26223V34.6682Z" fill="#FF385C"/>
</svg>
