<svg width="40" height="40" viewBox="0 0 40 40" fill="none" xmlns="http://www.w3.org/2000/svg">
<path d="M14 31.1111H22C24.6522 31.1111 27.1957 29.9405 29.0711 27.8567C30.9464 25.773 32 22.9469 32 20V17.7778H34C35.5913 17.7778 37.1174 17.0754 38.2426 15.8252C39.3679 14.5749 40 12.8792 40 11.1111C40 9.343 39.3679 7.64731 38.2426 6.39707C37.1174 5.14682 35.5913 4.44444 34 4.44444H32V2.22222C32 1.63285 31.7893 1.06762 31.4142 0.650874C31.0391 0.234126 30.5304 0 30 0H6C5.46957 0 4.96086 0.234126 4.58579 0.650874C4.21071 1.06762 4 1.63285 4 2.22222V20C4 22.9469 5.05357 25.773 6.92893 27.8567C8.8043 29.9405 11.3478 31.1111 14 31.1111ZM32 8.88889H34C34.5304 8.88889 35.0391 9.12302 35.4142 9.53976C35.7893 9.95651 36 10.5217 36 11.1111C36 11.7005 35.7893 12.2657 35.4142 12.6825C35.0391 13.0992 34.5304 13.3333 34 13.3333H32V8.88889ZM8 4.44444H28V20C28 21.7681 27.3679 23.4638 26.2426 24.714C25.1174 25.9643 23.5913 26.6667 22 26.6667H14C12.4087 26.6667 10.8826 25.9643 9.75736 24.714C8.63214 23.4638 8 21.7681 8 20V4.44444ZM38 35.5556H2C1.46957 35.5556 0.960859 35.7897 0.585786 36.2064C0.210714 36.6232 0 37.1884 0 37.7778C0 38.3671 0.210714 38.9324 0.585786 39.3491C0.960859 39.7659 1.46957 40 2 40H38C38.5304 40 39.0391 39.7659 39.4142 39.3491C39.7893 38.9324 40 38.3671 40 37.7778C40 37.1884 39.7893 36.6232 39.4142 36.2064C39.0391 35.7897 38.5304 35.5556 38 35.5556Z" fill="#C08209"/>
</svg>
