<svg width="245" height="47" viewBox="0 0 245 47" fill="none" xmlns="http://www.w3.org/2000/svg">
<path d="M17.3158 4.94752H9.89471L1.23682 16.0791H13.6052L17.3158 4.94752Z" fill="#BDDDF4"/>
<path d="M45.7632 16.0791L37.1053 4.94752H29.6842L33.3947 16.0791H45.7632Z" fill="#5DADEC"/>
<path d="M33.3947 16.079H45.7632L23.5 42.0527L33.3947 16.079Z" fill="#4289C1"/>
<path d="M13.6052 16.079H1.23682L23.5 42.0527L13.6052 16.079Z" fill="#8CCAF7"/>
<path d="M17.3158 4.94752L13.6053 16.0791H33.3948L29.6842 4.94752H17.3158Z" fill="#8CCAF7"/>
<path d="M23.5 42.0527L13.6053 16.079H33.3948L23.5 42.0527Z" fill="#5DADEC"/>
<path d="M17.3158 4.94752H9.89471L1.23682 16.0791H13.6052L17.3158 4.94752Z" fill="#BDDDF4"/>
<path d="M45.7632 16.0791L37.1053 4.94752H29.6842L33.3947 16.0791H45.7632Z" fill="#5DADEC"/>
<path d="M33.3947 16.079H45.7632L23.5 42.0527L33.3947 16.079Z" fill="#4289C1"/>
<path d="M13.6052 16.079H1.23682L23.5 42.0527L13.6052 16.079Z" fill="#8CCAF7"/>
<path d="M17.3158 4.94752L13.6053 16.0791H33.3948L29.6842 4.94752H17.3158Z" fill="#8CCAF7"/>
<path d="M23.5 42.0527L13.6053 16.079H33.3948L23.5 42.0527Z" fill="#5DADEC"/>
<path d="M66.3158 4.94752H58.8947L50.2368 16.0791H62.6052L66.3158 4.94752Z" fill="#BDDDF4"/>
<path d="M94.7632 16.0791L86.1053 4.94752H78.6842L82.3947 16.0791H94.7632Z" fill="#5DADEC"/>
<path d="M82.3947 16.079H94.7632L72.5 42.0527L82.3947 16.079Z" fill="#4289C1"/>
<path d="M62.6052 16.079H50.2368L72.5 42.0527L62.6052 16.079Z" fill="#8CCAF7"/>
<path d="M66.3158 4.94752L62.6053 16.0791H82.3948L78.6842 4.94752H66.3158Z" fill="#8CCAF7"/>
<path d="M72.5 42.0527L62.6053 16.079H82.3948L72.5 42.0527Z" fill="#5DADEC"/>
<path d="M66.3158 4.94752H58.8947L50.2368 16.0791H62.6052L66.3158 4.94752Z" fill="#BDDDF4"/>
<path d="M94.7632 16.0791L86.1053 4.94752H78.6842L82.3947 16.0791H94.7632Z" fill="#5DADEC"/>
<path d="M82.3947 16.079H94.7632L72.5 42.0527L82.3947 16.079Z" fill="#4289C1"/>
<path d="M62.6052 16.079H50.2368L72.5 42.0527L62.6052 16.079Z" fill="#8CCAF7"/>
<path d="M66.3158 4.94752L62.6053 16.0791H82.3948L78.6842 4.94752H66.3158Z" fill="#8CCAF7"/>
<path d="M72.5 42.0527L62.6053 16.079H82.3948L72.5 42.0527Z" fill="#5DADEC"/>
<path d="M116.316 4.94752H108.895L100.237 16.0791H112.605L116.316 4.94752Z" fill="#BDDDF4"/>
<path d="M144.763 16.0791L136.105 4.94752H128.684L132.395 16.0791H144.763Z" fill="#5DADEC"/>
<path d="M132.395 16.079H144.763L122.5 42.0527L132.395 16.079Z" fill="#4289C1"/>
<path d="M112.605 16.079H100.237L122.5 42.0527L112.605 16.079Z" fill="#8CCAF7"/>
<path d="M116.316 4.94752L112.605 16.0791H132.395L128.684 4.94752H116.316Z" fill="#8CCAF7"/>
<path d="M122.5 42.0527L112.605 16.079H132.395L122.5 42.0527Z" fill="#5DADEC"/>
<path d="M116.316 4.94752H108.895L100.237 16.0791H112.605L116.316 4.94752Z" fill="#BDDDF4"/>
<path d="M144.763 16.0791L136.105 4.94752H128.684L132.395 16.0791H144.763Z" fill="#5DADEC"/>
<path d="M132.395 16.079H144.763L122.5 42.0527L132.395 16.079Z" fill="#4289C1"/>
<path d="M112.605 16.079H100.237L122.5 42.0527L112.605 16.079Z" fill="#8CCAF7"/>
<path d="M116.316 4.94752L112.605 16.0791H132.395L128.684 4.94752H116.316Z" fill="#8CCAF7"/>
<path d="M122.5 42.0527L112.605 16.079H132.395L122.5 42.0527Z" fill="#5DADEC"/>
<path d="M165.316 4.94752H157.895L149.237 16.0791H161.605L165.316 4.94752Z" fill="#BDDDF4"/>
<path d="M193.763 16.0791L185.105 4.94752H177.684L181.395 16.0791H193.763Z" fill="#5DADEC"/>
<path d="M181.395 16.079H193.763L171.5 42.0527L181.395 16.079Z" fill="#4289C1"/>
<path d="M161.605 16.079H149.237L171.5 42.0527L161.605 16.079Z" fill="#8CCAF7"/>
<path d="M165.316 4.94752L161.605 16.0791H181.395L177.684 4.94752H165.316Z" fill="#8CCAF7"/>
<path d="M171.5 42.0527L161.605 16.079H181.395L171.5 42.0527Z" fill="#5DADEC"/>
<path d="M165.316 4.94752H157.895L149.237 16.0791H161.605L165.316 4.94752Z" fill="#BDDDF4"/>
<path d="M193.763 16.0791L185.105 4.94752H177.684L181.395 16.0791H193.763Z" fill="#5DADEC"/>
<path d="M181.395 16.079H193.763L171.5 42.0527L181.395 16.079Z" fill="#4289C1"/>
<path d="M161.605 16.079H149.237L171.5 42.0527L161.605 16.079Z" fill="#8CCAF7"/>
<path d="M165.316 4.94752L161.605 16.0791H181.395L177.684 4.94752H165.316Z" fill="#8CCAF7"/>
<path d="M171.5 42.0527L161.605 16.079H181.395L171.5 42.0527Z" fill="#5DADEC"/>
<path d="M215.316 4.94752H207.895L199.237 16.0791H211.605L215.316 4.94752Z" fill="#BDDDF4"/>
<path d="M243.763 16.0791L235.105 4.94752H227.684L231.395 16.0791H243.763Z" fill="#5DADEC"/>
<path d="M231.395 16.079H243.763L221.5 42.0527L231.395 16.079Z" fill="#4289C1"/>
<path d="M211.605 16.079H199.237L221.5 42.0527L211.605 16.079Z" fill="#8CCAF7"/>
<path d="M215.316 4.94752L211.605 16.0791H231.395L227.684 4.94752H215.316Z" fill="#8CCAF7"/>
<path d="M221.5 42.0527L211.605 16.079H231.395L221.5 42.0527Z" fill="#5DADEC"/>
<path d="M215.316 4.94752H207.895L199.237 16.0791H211.605L215.316 4.94752Z" fill="#BDDDF4"/>
<path d="M243.763 16.0791L235.105 4.94752H227.684L231.395 16.0791H243.763Z" fill="#5DADEC"/>
<path d="M231.395 16.079H243.763L221.5 42.0527L231.395 16.079Z" fill="#4289C1"/>
<path d="M211.605 16.079H199.237L221.5 42.0527L211.605 16.079Z" fill="#8CCAF7"/>
<path d="M215.316 4.94752L211.605 16.0791H231.395L227.684 4.94752H215.316Z" fill="#8CCAF7"/>
<path d="M221.5 42.0527L211.605 16.079H231.395L221.5 42.0527Z" fill="#5DADEC"/>
</svg>
