<svg width="255" height="42" viewBox="0 0 255 42" fill="none" xmlns="http://www.w3.org/2000/svg">
<path d="M18.1316 0.000103474H9.76316L0 12.5527H13.9474L18.1316 0.000103474Z" fill="white"/>
<path d="M50.2104 12.5527L40.4473 0.000103474H32.0789L36.2631 12.5527H50.2104Z" fill="#666666"/>
<path d="M36.2631 12.5528H50.2105L25.1052 41.8423L36.2631 12.5528Z" fill="black"/>
<path d="M13.9474 12.5528H0L25.1053 41.8423L13.9474 12.5528Z" fill="#D9D9D9"/>
<path d="M18.1315 0.000103474L13.9473 12.5527H36.2631L32.0788 0.000103474H18.1315Z" fill="#D9D9D9"/>
<path d="M25.1052 41.8423L13.9473 12.5528H36.2631L25.1052 41.8423Z" fill="#666666"/>
<path d="M18.1316 0.000103474H9.76316L0 12.5527H13.9474L18.1316 0.000103474Z" fill="white"/>
<path d="M50.2104 12.5527L40.4473 0.000103474H32.0789L36.2631 12.5527H50.2104Z" fill="#666666"/>
<path d="M36.2631 12.5528H50.2105L25.1052 41.8423L36.2631 12.5528Z" fill="black"/>
<path d="M13.9474 12.5528H0L25.1053 41.8423L13.9474 12.5528Z" fill="#D9D9D9"/>
<path d="M18.1315 0.000103474L13.9473 12.5527H36.2631L32.0788 0.000103474H18.1315Z" fill="#D9D9D9"/>
<path d="M25.1052 41.8423L13.9473 12.5528H36.2631L25.1052 41.8423Z" fill="#666666"/>
<path d="M69.1316 0.000103474H60.7632L51 12.5527H64.9474L69.1316 0.000103474Z" fill="white"/>
<path d="M101.21 12.5527L91.4473 0.000103474H83.0789L87.2631 12.5527H101.21Z" fill="#666666"/>
<path d="M87.2631 12.5528H101.21L76.1052 41.8423L87.2631 12.5528Z" fill="black"/>
<path d="M64.9474 12.5528H51L76.1053 41.8423L64.9474 12.5528Z" fill="#D9D9D9"/>
<path d="M69.1315 0.000103474L64.9473 12.5527H87.2631L83.0788 0.000103474H69.1315Z" fill="#D9D9D9"/>
<path d="M76.1052 41.8423L64.9473 12.5528H87.2631L76.1052 41.8423Z" fill="#666666"/>
<path d="M69.1316 0.000103474H60.7632L51 12.5527H64.9474L69.1316 0.000103474Z" fill="white"/>
<path d="M101.21 12.5527L91.4473 0.000103474H83.0789L87.2631 12.5527H101.21Z" fill="#666666"/>
<path d="M87.2631 12.5528H101.21L76.1052 41.8423L87.2631 12.5528Z" fill="black"/>
<path d="M64.9474 12.5528H51L76.1053 41.8423L64.9474 12.5528Z" fill="#D9D9D9"/>
<path d="M69.1315 0.000103474L64.9473 12.5527H87.2631L83.0788 0.000103474H69.1315Z" fill="#D9D9D9"/>
<path d="M76.1052 41.8423L64.9473 12.5528H87.2631L76.1052 41.8423Z" fill="#666666"/>
<path d="M222.132 0.000102401H213.763L204 12.5527H217.947L222.132 0.000102401Z" fill="#BDDDF4"/>
<path d="M254.21 12.5527L244.447 0.000102401H236.079L240.263 12.5527H254.21Z" fill="#5DADEC"/>
<path d="M240.263 12.5528H254.21L229.105 41.8423L240.263 12.5528Z" fill="#4289C1"/>
<path d="M217.947 12.5528H204L229.105 41.8423L217.947 12.5528Z" fill="#8CCAF7"/>
<path d="M222.131 0.000102401L217.947 12.5527H240.263L236.079 0.000102401H222.131Z" fill="#8CCAF7"/>
<path d="M229.105 41.8423L217.947 12.5528H240.263L229.105 41.8423Z" fill="#5DADEC"/>
<path d="M171.132 0.000102401H162.763L153 12.5527H166.947L171.132 0.000102401Z" fill="#BDDDF4"/>
<path d="M203.21 12.5527L193.447 0.000102401H185.079L189.263 12.5527H203.21Z" fill="#5DADEC"/>
<path d="M189.263 12.5528H203.21L178.105 41.8423L189.263 12.5528Z" fill="#4289C1"/>
<path d="M166.947 12.5528H153L178.105 41.8423L166.947 12.5528Z" fill="#8CCAF7"/>
<path d="M171.131 0.000102401L166.947 12.5527H189.263L185.079 0.000102401H171.131Z" fill="#8CCAF7"/>
<path d="M178.105 41.8423L166.947 12.5528H189.263L178.105 41.8423Z" fill="#5DADEC"/>
<path d="M119.132 0.000102401H110.763L101 12.5527H114.947L119.132 0.000102401Z" fill="#BDDDF4"/>
<path d="M151.21 12.5527L141.447 0.000102401H133.079L137.263 12.5527H151.21Z" fill="#5DADEC"/>
<path d="M137.263 12.5528H151.21L126.105 41.8423L137.263 12.5528Z" fill="#4289C1"/>
<path d="M114.947 12.5528H101L126.105 41.8423L114.947 12.5528Z" fill="#8CCAF7"/>
<path d="M119.131 0.000102401L114.947 12.5527H137.263L133.079 0.000102401H119.131Z" fill="#8CCAF7"/>
<path d="M126.105 41.8423L114.947 12.5528H137.263L126.105 41.8423Z" fill="#5DADEC"/>
<g clip-path="url(#clip0_1481_902)">
<path d="M101.263 12.5527L91.5 0.000102401H83.1316L87.3158 12.5527H101.263Z" fill="#5DADEC"/>
<path d="M87.3159 12.5528H101.263L76.158 41.8423L87.3159 12.5528Z" fill="#4289C1"/>
<path d="M69.1842 0.000102401L65 12.5527H87.3158L83.1316 0.000102401H69.1842Z" fill="#8CCAF7"/>
<path d="M76.1579 41.8423L65 12.5528H87.3158L76.1579 41.8423Z" fill="#5DADEC"/>
<path d="M101.263 12.5527L91.5 0.000102043H83.1316L87.3158 12.5527H101.263Z" fill="#5DADEC"/>
</g>
<defs>
<clipPath id="clip0_1481_902">
<rect width="25" height="42" fill="white" transform="translate(76)"/>
</clipPath>
</defs>
</svg>
