<svg width="254" height="42" viewBox="0 0 254 42" fill="none" xmlns="http://www.w3.org/2000/svg">
<path d="M221.132 0.000102401H212.763L203 12.5527H216.947L221.132 0.000102401Z" fill="#BDDDF4"/>
<path d="M253.21 12.5527L243.447 0.000102401H235.079L239.263 12.5527H253.21Z" fill="#5DADEC"/>
<path d="M239.263 12.5528H253.21L228.105 41.8423L239.263 12.5528Z" fill="#4289C1"/>
<path d="M216.947 12.5528H203L228.105 41.8423L216.947 12.5528Z" fill="#8CCAF7"/>
<path d="M221.131 0.000102401L216.947 12.5527H239.263L235.079 0.000102401H221.131Z" fill="#8CCAF7"/>
<path d="M228.105 41.8423L216.947 12.5528H239.263L228.105 41.8423Z" fill="#5DADEC"/>
<path d="M170.132 0.000102401H161.763L152 12.5527H165.947L170.132 0.000102401Z" fill="#BDDDF4"/>
<path d="M202.21 12.5527L192.447 0.000102401H184.079L188.263 12.5527H202.21Z" fill="#5DADEC"/>
<path d="M188.263 12.5528H202.21L177.105 41.8423L188.263 12.5528Z" fill="#4289C1"/>
<path d="M165.947 12.5528H152L177.105 41.8423L165.947 12.5528Z" fill="#8CCAF7"/>
<path d="M170.131 0.000102401L165.947 12.5527H188.263L184.079 0.000102401H170.131Z" fill="#8CCAF7"/>
<path d="M177.105 41.8423L165.947 12.5528H188.263L177.105 41.8423Z" fill="#5DADEC"/>
<path d="M118.132 0.000102401H109.763L100 12.5527H113.947L118.132 0.000102401Z" fill="#BDDDF4"/>
<path d="M150.21 12.5527L140.447 0.000102401H132.079L136.263 12.5527H150.21Z" fill="#5DADEC"/>
<path d="M136.263 12.5528H150.21L125.105 41.8423L136.263 12.5528Z" fill="#4289C1"/>
<path d="M113.947 12.5528H100L125.105 41.8423L113.947 12.5528Z" fill="#8CCAF7"/>
<path d="M118.131 0.000102401L113.947 12.5527H136.263L132.079 0.000102401H118.131Z" fill="#8CCAF7"/>
<path d="M125.105 41.8423L113.947 12.5528H136.263L125.105 41.8423Z" fill="#5DADEC"/>
<path d="M68.1316 0.000102401H59.7632L50 12.5527H63.9474L68.1316 0.000102401Z" fill="#BDDDF4"/>
<path d="M100.21 12.5527L90.4473 0.000102401H82.0789L86.2631 12.5527H100.21Z" fill="#5DADEC"/>
<path d="M86.2631 12.5528H100.21L75.1052 41.8423L86.2631 12.5528Z" fill="#4289C1"/>
<path d="M63.9474 12.5528H50L75.1053 41.8423L63.9474 12.5528Z" fill="#8CCAF7"/>
<path d="M68.1315 0.000102401L63.9473 12.5527H86.2631L82.0788 0.000102401H68.1315Z" fill="#8CCAF7"/>
<path d="M75.1052 41.8423L63.9473 12.5528H86.2631L75.1052 41.8423Z" fill="#5DADEC"/>
<path d="M18.1316 0.000102401H9.76316L0 12.5527H13.9474L18.1316 0.000102401Z" fill="#BDDDF4"/>
<path d="M50.2104 12.5527L40.4473 0.000102401H32.0789L36.2631 12.5527H50.2104Z" fill="#5DADEC"/>
<path d="M36.2631 12.5528H50.2105L25.1052 41.8423L36.2631 12.5528Z" fill="#4289C1"/>
<path d="M13.9474 12.5528H0L25.1053 41.8423L13.9474 12.5528Z" fill="#8CCAF7"/>
<path d="M18.1315 0.000102401L13.9473 12.5527H36.2631L32.0788 0.000102401H18.1315Z" fill="#8CCAF7"/>
<path d="M25.1052 41.8423L13.9473 12.5528H36.2631L25.1052 41.8423Z" fill="#5DADEC"/>
</svg>
