<svg width="40" height="40" viewBox="0 0 40 40" fill="none" xmlns="http://www.w3.org/2000/svg">
<path d="M14 19.5C12.62 19.5 11.5 20.62 11.5 22C11.5 23.38 12.62 24.5 14 24.5C15.38 24.5 16.5 23.38 16.5 22C16.5 20.62 15.38 19.5 14 19.5ZM26 19.5C24.62 19.5 23.5 20.62 23.5 22C23.5 23.38 24.62 24.5 26 24.5C27.38 24.5 28.5 23.38 28.5 22C28.5 20.62 27.38 19.5 26 19.5ZM20 0C8.96 0 0 8.96 0 20C0 31.04 8.96 40 20 40C31.04 40 40 31.04 40 20C40 8.96 31.04 0 20 0ZM20 36C11.18 36 4 28.82 4 20C4 19.42 4.04 18.84 4.1 18.28C8.82 16.18 12.56 12.32 14.52 7.54C18.14 12.66 24.1 16 30.84 16C32.4 16 33.9 15.82 35.34 15.48C35.76 16.9 36 18.42 36 20C36 28.82 28.82 36 20 36Z" fill="#4289C1"/>
</svg>
