<svg width="40" height="40" viewBox="0 0 40 40" fill="none" xmlns="http://www.w3.org/2000/svg">
<g clip-path="url(#clip0_1318_2)">
<path d="M15.0669 15.0754C15.7816 15.0771 16.4807 14.8667 17.0758 14.4709C17.6708 14.0751 18.135 13.5116 18.4097 12.8518C18.6844 12.192 18.7571 11.4656 18.6187 10.7644C18.4803 10.0633 18.137 9.41893 17.6322 8.91298C17.1275 8.40703 16.484 8.06221 15.7831 7.92216C15.0823 7.78212 14.3557 7.85314 13.6953 8.12625C13.0348 8.39935 12.4703 8.86226 12.073 9.45638C11.6758 10.0505 11.4638 10.7491 11.4638 11.4638C11.466 12.4195 11.8461 13.3355 12.5211 14.0121C13.1961 14.6887 14.1112 15.0709 15.0669 15.0754ZM16.4351 20.5226H13.7157C12.588 20.5224 11.4822 20.8343 10.5208 21.4237C9.55938 22.0132 8.77985 22.8572 8.26853 23.8623C7.79516 24.7945 7.56855 25.8324 7.61031 26.8771C7.65207 27.9217 7.96081 28.9382 8.50707 29.8296C9.05334 30.7211 9.81891 31.4576 10.7307 31.9691C11.6426 32.4805 12.6703 32.7498 13.7157 32.7512H16.4521C18.0343 32.6922 19.532 32.0222 20.6304 30.882C21.7289 29.7418 22.3427 28.2202 22.3427 26.6369C22.3427 25.0537 21.7289 23.532 20.6304 22.3918C19.532 21.2516 18.0343 20.5816 16.4521 20.5226H16.4351Z" fill="#93A0E3"/>
<path d="M19.9958 0C14.6918 0.00225318 9.60579 2.11083 5.8561 5.86211C2.10642 9.61339 -4.78585e-07 14.7003 0 20.0043C0 25.3075 2.10669 30.3935 5.85662 34.1434C9.60655 37.8933 14.6925 40 19.9958 40C22.6223 40.0011 25.2234 39.4847 27.6504 38.4804C30.0774 37.476 32.2827 36.0033 34.1404 34.1464C35.9981 32.2895 37.4717 30.0848 38.4771 27.6583C39.4825 25.2317 40 22.6308 40 20.0043C40 14.6988 37.8924 9.61063 34.1409 5.85911C30.3894 2.10758 25.3012 0 19.9958 0ZM13.8517 6.297C14.9763 6.03203 16.1566 6.14098 17.2137 6.60733C18.2707 7.07369 19.1469 7.87202 19.7093 8.88126C20.2717 9.8905 20.4897 11.0556 20.3302 12.1999C20.1707 13.3442 19.6424 14.4053 18.8254 15.2223C18.0085 16.0393 16.9474 16.5675 15.8031 16.7271C14.6588 16.8866 13.4936 16.6686 12.4844 16.1062C11.4752 15.5438 10.6768 14.6676 10.2105 13.6105C9.74412 12.5534 9.63517 11.3731 9.90015 10.2486C10.1274 9.28819 10.6174 8.40997 11.3153 7.71211C12.0131 7.01426 12.8913 6.5243 13.8517 6.297ZM16.1292 34.3998H13.9452C11.9049 34.4294 9.92775 33.6925 8.4045 32.3348C7.60465 31.6081 6.9649 30.7227 6.52597 29.7351C6.08705 28.7476 5.85858 27.6794 5.85511 26.5987C5.85682 25.3645 6.14787 24.1479 6.70491 23.0465C7.35725 21.7647 8.35234 20.6889 9.57955 19.9387C10.8067 19.1886 12.218 18.7936 13.6563 18.7975H16.1292C18.1065 18.764 20.0282 19.4529 21.5339 20.7351C22.3712 21.4614 23.0421 22.3596 23.5011 23.3685C23.9601 24.3774 24.1963 25.4733 24.1938 26.5817C24.1469 28.6833 23.2745 30.6819 21.7652 32.145C20.2559 33.6082 18.2312 34.4182 16.1292 34.3998ZM33.2611 16.7665H29.0121V21.0155C29.0121 21.2409 28.9226 21.457 28.7632 21.6164C28.6038 21.7758 28.3877 21.8653 28.1623 21.8653C27.9369 21.8653 27.7208 21.7758 27.5614 21.6164C27.402 21.457 27.3125 21.2409 27.3125 21.0155V16.7665H23.0635C22.8381 16.7665 22.622 16.677 22.4626 16.5176C22.3033 16.3583 22.2137 16.1421 22.2137 15.9167C22.2137 15.6913 22.3033 15.4752 22.4626 15.3158C22.622 15.1565 22.8381 15.0669 23.0635 15.0669H27.3125V10.8179C27.3125 10.5926 27.402 10.3764 27.5614 10.217C27.7208 10.0577 27.9369 9.96813 28.1623 9.96813C28.3877 9.96813 28.6038 10.0577 28.7632 10.217C28.9226 10.3764 29.0121 10.5926 29.0121 10.8179V15.0669H33.2611C33.4865 15.0669 33.7026 15.1565 33.862 15.3158C34.0214 15.4752 34.1109 15.6913 34.1109 15.9167C34.1109 16.1421 34.0214 16.3583 33.862 16.5176C33.7026 16.677 33.4865 16.7665 33.2611 16.7665Z" fill="#93A0E3"/>
</g>
<defs>
<clipPath id="clip0_1318_2">
<rect width="40" height="40" fill="white"/>
</clipPath>
</defs>
</svg>
