<svg width="94" height="28" viewBox="0 0 94 28" fill="none" xmlns="http://www.w3.org/2000/svg">
<rect width="94" height="28" rx="14" fill="#DCF0F5"/>
<path d="M38.5512 9.03644H39.5862V10.0714C39.5862 12.4564 38.0262 14.4664 35.7462 15.2464L35.1162 14.2564C37.1562 13.5964 38.5512 11.9164 38.5512 10.0714V9.03644ZM38.7912 9.03644H39.8262V10.0714C39.8262 11.8264 41.2512 13.4014 43.2462 14.0314L42.6312 15.0064C40.3812 14.2714 38.7912 12.3664 38.7912 10.0714V9.03644ZM35.4612 8.75144H42.8862V9.75644H35.4612V8.75144ZM44.8062 7.86644H46.0662V15.2014H44.8062V7.86644ZM37.3212 15.8764H38.5512V17.4814H44.8362V15.8764H46.0662V21.2464H37.3212V15.8764ZM38.5512 18.4864V20.2264H44.8362V18.4864H38.5512ZM52.065 9.03644H53.085V11.4664C53.085 14.4664 51.465 17.3914 49.32 18.5314L48.555 17.5414C50.52 16.5514 52.065 13.9414 52.065 11.4664V9.03644ZM52.29 9.03644H53.295V11.4664C53.295 13.8514 54.81 16.3264 56.73 17.2864L55.965 18.2764C53.865 17.1514 52.29 14.3764 52.29 11.4664V9.03644ZM57.915 7.86644H59.175V21.4264H57.915V7.86644ZM58.875 13.3564H61.395V14.4064H58.875V13.3564Z" fill="black"/>
</svg>
