<svg width="94" height="28" viewBox="0 0 94 28" fill="none" xmlns="http://www.w3.org/2000/svg">
<rect width="94" height="28" rx="14" fill="#93A0E3"/>
<path d="M27.1601 11.6014H30.5801V12.6214H27.1601V11.6014ZM29.8751 7.88144H31.1201V17.8114H29.8751V7.88144ZM22.4651 20.1064H31.4951V21.1264H22.4651V20.1064ZM22.4651 16.9414H23.7101V20.6314H22.4651V16.9414ZM23.4251 9.56144H24.4451V10.6564C24.4451 13.1164 22.9151 15.2464 20.6501 16.0864L20.0051 15.0964C22.0301 14.3764 23.4251 12.5764 23.4251 10.6564V9.56144ZM23.6651 9.56144H24.6701V10.6414C24.6701 12.3964 25.9901 14.1064 27.9551 14.7964L27.3251 15.7714C25.1201 14.9764 23.6651 12.9364 23.6651 10.6414V9.56144ZM20.3951 8.97644H27.6401V9.98144H20.3951V8.97644ZM40.7339 10.3114H44.1989V11.3464H40.7339V10.3114ZM43.6739 7.86644H44.9189V14.8564H43.6739V7.86644ZM36.1889 15.5614H44.9189V18.8014H37.4489V20.8564H36.2339V17.8714H43.6889V16.5514H36.1889V15.5614ZM36.2339 20.2564H45.4289V21.2464H36.2339V20.2564ZM37.1489 8.28644H38.1689V9.56144C38.1689 12.0664 36.6689 14.0914 34.4039 14.9014L33.7589 13.9114C35.7989 13.2214 37.1489 11.5264 37.1489 9.56144V8.28644ZM37.3589 8.28644H38.3639V9.56144C38.3639 11.3314 39.7289 12.9664 41.6939 13.6114L41.0489 14.5864C38.8589 13.8064 37.3589 11.8564 37.3589 9.56144V8.28644ZM54.5272 9.03644H55.5622V10.0714C55.5622 12.4564 54.0022 14.4664 51.7222 15.2464L51.0922 14.2564C53.1322 13.5964 54.5272 11.9164 54.5272 10.0714V9.03644ZM54.7672 9.03644H55.8022V10.0714C55.8022 11.8264 57.2272 13.4014 59.2222 14.0314L58.6072 15.0064C56.3572 14.2714 54.7672 12.3664 54.7672 10.0714V9.03644ZM51.4372 8.75144H58.8622V9.75644H51.4372V8.75144ZM60.7822 7.86644H62.0422V15.2014H60.7822V7.86644ZM53.2972 15.8764H54.5272V17.4814H60.8122V15.8764H62.0422V21.2464H53.2972V15.8764ZM54.5272 18.4864V20.2264H60.8122V18.4864H54.5272ZM68.0411 9.03644H69.0611V11.4664C69.0611 14.4664 67.4411 17.3914 65.2961 18.5314L64.5311 17.5414C66.4961 16.5514 68.0411 13.9414 68.0411 11.4664V9.03644ZM68.2661 9.03644H69.2711V11.4664C69.2711 13.8514 70.7861 16.3264 72.7061 17.2864L71.9411 18.2764C69.8411 17.1514 68.2661 14.3764 68.2661 11.4664V9.03644ZM73.8911 7.86644H75.1511V21.4264H73.8911V7.86644ZM74.8511 13.3564H77.3711V14.4064H74.8511V13.3564Z" fill="black"/>
</svg>
