<svg width="94" height="28" viewBox="0 0 94 28" fill="none" xmlns="http://www.w3.org/2000/svg">
<rect width="94" height="28" rx="14" fill="#E3FEE8"/>
<path d="M29.8751 7.86644H31.1351V17.9614H29.8751V7.86644ZM25.7501 8.91644H27.0701C27.0701 12.4264 24.5651 15.0814 20.7251 16.3414L20.1851 15.3364C23.5301 14.2414 25.7501 12.1114 25.7501 9.44144V8.91644ZM20.8601 8.91644H26.5151V9.95144H20.8601V8.91644ZM26.4401 10.6564H30.0701V11.6764H26.4401V10.6564ZM26.3051 13.7014H30.0251V14.7214H26.3051V13.7014ZM22.5551 20.1064H31.4651V21.1264H22.5551V20.1064ZM22.5551 16.9864H23.8001V20.7364H22.5551V16.9864ZM35.3189 15.9964H36.5489V17.5714H43.1789V15.9964H44.4239V21.2464H35.3189V15.9964ZM36.5489 18.5314V20.2414H43.1789V18.5314H36.5489ZM33.7589 14.0464H46.0139V15.0514H33.7589V14.0464ZM39.2639 8.01644H40.3289V8.61644C40.3289 10.9714 37.7039 12.6664 34.9139 13.0864L34.4639 12.1114C36.9089 11.7814 39.2639 10.3264 39.2639 8.61644V8.01644ZM39.4589 8.01644H40.5239V8.61644C40.5239 10.2964 42.9089 11.7814 45.3239 12.1114L44.8589 13.0864C42.0989 12.6664 39.4589 10.9414 39.4589 8.61644V8.01644ZM54.5272 9.03644H55.5622V10.0714C55.5622 12.4564 54.0022 14.4664 51.7222 15.2464L51.0922 14.2564C53.1322 13.5964 54.5272 11.9164 54.5272 10.0714V9.03644ZM54.7672 9.03644H55.8022V10.0714C55.8022 11.8264 57.2272 13.4014 59.2222 14.0314L58.6072 15.0064C56.3572 14.2714 54.7672 12.3664 54.7672 10.0714V9.03644ZM51.4372 8.75144H58.8622V9.75644H51.4372V8.75144ZM60.7822 7.86644H62.0422V15.2014H60.7822V7.86644ZM53.2972 15.8764H54.5272V17.4814H60.8122V15.8764H62.0422V21.2464H53.2972V15.8764ZM54.5272 18.4864V20.2264H60.8122V18.4864H54.5272ZM68.0411 9.03644H69.0611V11.4664C69.0611 14.4664 67.4411 17.3914 65.2961 18.5314L64.5311 17.5414C66.4961 16.5514 68.0411 13.9414 68.0411 11.4664V9.03644ZM68.2661 9.03644H69.2711V11.4664C69.2711 13.8514 70.7861 16.3264 72.7061 17.2864L71.9411 18.2764C69.8411 17.1514 68.2661 14.3764 68.2661 11.4664V9.03644ZM73.8911 7.86644H75.1511V21.4264H73.8911V7.86644ZM74.8511 13.3564H77.3711V14.4064H74.8511V13.3564Z" fill="black"/>
</svg>
