<svg width="94" height="28" viewBox="0 0 94 28" fill="none" xmlns="http://www.w3.org/2000/svg">
<rect width="94" height="28" rx="14" fill="#8BC3EB"/>
<path d="M19.9751 18.6514H32.2601V19.6864H19.9751V18.6514ZM21.0401 9.21644H31.1051V10.2364H21.0401V9.21644ZM21.0701 14.9464H31.0901V15.9664H21.0701V14.9464ZM23.1551 10.1614H24.4001V15.0514H23.1551V10.1614ZM27.7751 10.1614H29.0051V15.0514H27.7751V10.1614ZM33.7739 18.7264H46.0589V19.7614H33.7739V18.7264ZM39.2639 15.8164H40.5089V19.1614H39.2639V15.8164ZM35.2589 8.87144H44.5439V12.9814H36.5339V15.6964H35.3039V11.9764H43.3139V9.87644H35.2589V8.87144ZM35.3039 15.1714H44.8589V16.1914H35.3039V15.1714ZM54.5272 9.03644H55.5622V10.0714C55.5622 12.4564 54.0022 14.4664 51.7222 15.2464L51.0922 14.2564C53.1322 13.5964 54.5272 11.9164 54.5272 10.0714V9.03644ZM54.7672 9.03644H55.8022V10.0714C55.8022 11.8264 57.2272 13.4014 59.2222 14.0314L58.6072 15.0064C56.3572 14.2714 54.7672 12.3664 54.7672 10.0714V9.03644ZM51.4372 8.75144H58.8622V9.75644H51.4372V8.75144ZM60.7822 7.86644H62.0422V15.2014H60.7822V7.86644ZM53.2972 15.8764H54.5272V17.4814H60.8122V15.8764H62.0422V21.2464H53.2972V15.8764ZM54.5272 18.4864V20.2264H60.8122V18.4864H54.5272ZM68.0411 9.03644H69.0611V11.4664C69.0611 14.4664 67.4411 17.3914 65.2961 18.5314L64.5311 17.5414C66.4961 16.5514 68.0411 13.9414 68.0411 11.4664V9.03644ZM68.2661 9.03644H69.2711V11.4664C69.2711 13.8514 70.7861 16.3264 72.7061 17.2864L71.9411 18.2764C69.8411 17.1514 68.2661 14.3764 68.2661 11.4664V9.03644ZM73.8911 7.86644H75.1511V21.4264H73.8911V7.86644ZM74.8511 13.3564H77.3711V14.4064H74.8511V13.3564Z" fill="black"/>
</svg>
