<svg width="28" height="30" viewBox="0 0 28 30" fill="none" xmlns="http://www.w3.org/2000/svg">
<path d="M15.603 0.770781C14.7035 -0.0491632 13.2965 -0.0491632 12.397 0.770781L1.09545 11.0729C0.3962 11.7103 0 12.5972 0 13.525V26.054C0 27.9177 1.567 29.4285 3.5 29.4285H7C8.933 29.4285 10.5 27.9177 10.5 26.054V20.4298C10.5 19.8086 11.0223 19.305 11.6667 19.305H16.3333C16.9777 19.305 17.5 19.8086 17.5 20.4298V26.054C17.5 27.9177 19.0671 29.4285 21 29.4285H24.5C26.4329 29.4285 28 27.9177 28 26.054V13.525C28 12.5972 27.6038 11.7103 26.9045 11.0729L15.603 0.770781Z" fill="#B0B8C0"/>
</svg>
