<svg width="40" height="40" viewBox="0 0 40 40" fill="none" xmlns="http://www.w3.org/2000/svg">
<g clip-path="url(#clip0_1222_36)">
<path d="M17.8496 26.9942L20.1767 25.4255L14.9364 17.5135L9.33419 21.2627C8.44618 21.8764 7.79232 22.7729 7.47927 23.8059C7.16622 24.839 7.21245 25.9477 7.61043 26.9511C7.87462 27.6317 8.29438 28.241 8.83613 28.7304C9.37788 29.2197 10.0266 29.5756 10.7304 29.7694C11.3953 29.9554 12.0927 29.9946 12.7743 29.8845C13.4558 29.7744 14.1054 29.5175 14.6779 29.1316L17.8841 26.9769L17.8496 26.9942Z" fill="#FFC10A"/>
<path d="M19.9957 0C14.6925 0 9.60652 2.10668 5.8566 5.8566C2.10668 9.60652 0 14.6925 0 19.9957C-4.92291e-07 25.2997 2.10641 30.3865 5.85608 34.1378C9.60575 37.8891 14.6917 39.9977 19.9957 40C25.3012 40 30.3893 37.8924 34.1409 34.1409C37.8924 30.3893 40 25.3012 40 19.9957C39.9977 14.6917 37.8891 9.60575 34.1378 5.85608C30.3865 2.10641 25.2997 -4.92291e-07 19.9957 0ZM34.346 22.0125C34.2742 22.1476 34.1676 22.2611 34.0374 22.3414C33.9071 22.4217 33.7578 22.4658 33.6048 22.4693C29.9728 22.6823 26.4365 23.7167 23.2622 25.4945L25.6755 30.3986C25.8566 30.6912 25.9783 31.0166 26.0336 31.3562C26.089 31.6958 26.0769 32.043 25.9981 32.3779C25.9192 32.7129 25.7752 33.029 25.5742 33.3083C25.3732 33.5876 25.1191 33.8245 24.8265 34.0056C24.534 34.1867 24.2086 34.3084 23.869 34.3637C23.5294 34.4191 23.1822 34.407 22.8472 34.3282C22.5123 34.2493 22.1962 34.1053 21.9169 33.9043C21.6376 33.7033 21.4007 33.4492 21.2196 33.1566L18.134 28.8472L15.6346 30.571C14.9022 31.0695 14.0751 31.4117 13.2046 31.5763C12.3341 31.7409 11.4391 31.7244 10.5753 31.5277C9.51728 31.291 8.53706 30.7885 7.72723 30.0676C6.9174 29.3468 6.3047 28.4314 5.94699 27.4079C5.4704 26.0619 5.45477 24.5957 5.90255 23.2399C6.35034 21.884 7.23613 20.7155 8.4206 19.9181L14.7296 15.6863C18.1956 13.2517 20.9505 9.93753 22.7106 6.0849C22.7726 5.94587 22.8703 5.82573 22.9938 5.73671C23.1172 5.64768 23.2621 5.59294 23.4135 5.57806C23.565 5.56317 23.7178 5.58867 23.8562 5.65196C23.9946 5.71525 24.1138 5.81407 24.2017 5.93838L27.5027 10.9114C27.781 10.8197 28.0716 10.7703 28.3646 10.7649C29.1654 10.7672 29.9327 11.0869 30.4982 11.654C31.0636 12.2211 31.3812 12.9893 31.3812 13.7901C31.3823 14.5013 31.1285 15.1893 30.6658 15.7294L34.2857 21.1679C34.3676 21.2915 34.4162 21.4343 34.4268 21.5823C34.4373 21.7302 34.4095 21.8784 34.346 22.0125Z" fill="#FFC10A"/>
<path d="M29.6488 14.1521C29.6863 14.0291 29.7066 13.9015 29.7091 13.7729C29.7088 13.445 29.587 13.1288 29.3674 12.8853C29.1478 12.6419 28.8458 12.4883 28.5197 12.4542L28.7869 12.8593L29.6488 14.1521ZM20.3577 27.3562L19.4958 27.925L22.5727 32.2344L22.6244 32.312C22.7287 32.4822 22.8849 32.6143 23.07 32.689C23.2551 32.7636 23.4592 32.7768 23.6524 32.7266C23.8455 32.6764 24.0174 32.5654 24.1427 32.4101C24.268 32.2547 24.34 32.0632 24.3482 31.8638C24.3468 31.6762 24.2898 31.4933 24.1844 31.3381C24.1612 31.3055 24.141 31.2709 24.1241 31.2347L21.7626 26.4253L20.3577 27.3562ZM26.4684 12.4284L23.5811 8.11894C21.8242 11.4534 19.352 14.3583 16.3413 16.6257L21.5816 24.5378C24.7818 22.5798 28.3698 21.3416 32.0965 20.9093L28.0198 14.7899L26.4684 12.4284Z" fill="#FFC10A"/>
</g>
<defs>
<clipPath id="clip0_1222_36">
<rect width="40" height="40" fill="white"/>
</clipPath>
</defs>
</svg>
