<svg width="48" height="48" viewBox="0 0 48 48" fill="none" xmlns="http://www.w3.org/2000/svg">
<path d="M44.88 13.64C42.9932 9.56667 39.9805 6.1181 36.1975 3.70124C32.4145 1.28438 28.0191 0.000117515 23.53 8.06644e-09C18.4406 -0.000133211 13.4884 1.64985 9.41611 4.70245C5.34384 7.75505 2.37107 12.0457 0.94372 16.9308C-0.483635 21.816 -0.288628 27.0322 1.49949 31.7971C3.28761 36.562 6.57244 40.6187 10.8613 43.3588C15.1501 46.0988 20.2117 47.3744 25.2869 46.9943C30.362 46.6141 35.1771 44.5988 39.0099 41.2504C42.8427 37.9021 45.4866 33.4013 46.545 28.4232C47.6033 23.4451 47.0191 18.258 44.88 13.64ZM15.95 12.18C15.95 13.1613 15.5602 14.1024 14.8663 14.7963C14.1724 15.4902 13.2313 15.88 12.25 15.88H12.18C11.6941 15.88 11.213 15.7843 10.7641 15.5984C10.3152 15.4124 9.90727 15.1399 9.5637 14.7963C9.22012 14.4527 8.94758 14.0448 8.76164 13.5959C8.5757 13.147 8.47999 12.6659 8.47999 12.18C8.47999 11.6941 8.5757 11.213 8.76164 10.7641C8.94758 10.3152 9.22012 9.90728 9.5637 9.5637C9.90727 9.22013 10.3152 8.94759 10.7641 8.76165C11.213 8.5757 11.6941 8.48 12.18 8.48H12.25C13.2313 8.48 14.1724 8.86982 14.8663 9.5637C15.5602 10.2576 15.95 11.1987 15.95 12.18ZM20.85 38.52H12.29C11.3087 38.52 10.3676 38.1302 9.6737 37.4363C8.97981 36.7424 8.58999 35.8013 8.58999 34.82C8.58999 33.8387 8.97981 32.8976 9.6737 32.2037C10.3676 31.5098 11.3087 31.12 12.29 31.12H20.85C21.8313 31.12 22.7724 31.5098 23.4663 32.2037C24.1602 32.8976 24.55 33.8387 24.55 34.82C24.55 35.8013 24.1602 36.7424 23.4663 37.4363C22.7724 38.1302 21.8313 38.52 20.85 38.52ZM34.68 38.52H34.6C33.6187 38.52 32.6776 38.1302 31.9837 37.4363C31.2898 36.7424 30.9 35.8013 30.9 34.82C30.9 33.8387 31.2898 32.8976 31.9837 32.2037C32.6776 31.5098 33.6187 31.12 34.6 31.12H34.68C35.6613 31.12 36.6024 31.5098 37.2963 32.2037C37.9902 32.8976 38.38 33.8387 38.38 34.82C38.38 35.8013 37.9902 36.7424 37.2963 37.4363C36.6024 38.1302 35.6613 38.52 34.68 38.52ZM34.68 27.23H11.98C10.9987 27.23 10.0576 26.8402 9.3637 26.1463C8.66981 25.4524 8.27999 24.5113 8.27999 23.53C8.27999 22.5487 8.66981 21.6076 9.3637 20.9137C10.0576 20.2198 10.9987 19.83 11.98 19.83H34.76C35.2459 19.83 35.727 19.9257 36.1759 20.1116C36.6248 20.2976 37.0327 20.5701 37.3763 20.9137C37.7199 21.2573 37.9924 21.6652 38.1783 22.1141C38.3643 22.563 38.46 23.0441 38.46 23.53C38.46 24.0159 38.3643 24.497 38.1783 24.9459C37.9924 25.3948 37.7199 25.8027 37.3763 26.1463C37.0327 26.4899 36.6248 26.7624 36.1759 26.9484C35.727 27.1343 35.2459 27.23 34.76 27.23H34.68ZM34.68 15.88H26.12C25.1387 15.88 24.1976 15.4902 23.5037 14.7963C22.8098 14.1024 22.42 13.1613 22.42 12.18C22.42 11.1987 22.8098 10.2576 23.5037 9.5637C24.1976 8.86982 25.1387 8.48 26.12 8.48H34.76C35.7413 8.48 36.6824 8.86982 37.3763 9.5637C38.0702 10.2576 38.46 11.1987 38.46 12.18C38.46 13.1613 38.0702 14.1024 37.3763 14.7963C36.6824 15.4902 35.7413 15.88 34.76 15.88H34.68Z" fill="#F291B0"/>
</svg>
