<svg width="30" height="30" viewBox="0 0 30 30" fill="none" xmlns="http://www.w3.org/2000/svg">
<path d="M15 0C12.0333 0 9.13319 0.879734 6.66645 2.52796C4.19972 4.17618 2.27713 6.51885 1.14181 9.25975C0.00649926 12.0006 -0.290551 15.0166 0.288228 17.9263C0.867006 20.8361 2.29562 23.5088 4.3934 25.6066C6.49119 27.7044 9.16394 29.133 12.0737 29.7118C14.9834 30.2905 17.9994 29.9935 20.7403 28.8582C23.4811 27.7229 25.8238 25.8003 27.472 23.3335C29.1203 20.8668 30 17.9667 30 15C29.9956 11.0231 28.4138 7.21037 25.6017 4.39828C22.7896 1.5862 18.9769 0.00442287 15 0ZM15 27C12.6266 27 10.3066 26.2962 8.33316 24.9776C6.35977 23.6591 4.8217 21.7849 3.91345 19.5922C3.0052 17.3995 2.76756 14.9867 3.23058 12.6589C3.69361 10.3311 4.83649 8.19295 6.51472 6.51472C8.19295 4.83649 10.3311 3.6936 12.6589 3.23058C14.9867 2.76755 17.3995 3.00519 19.5922 3.91344C21.7849 4.8217 23.6591 6.35977 24.9776 8.33315C26.2962 10.3065 27 12.6266 27 15C26.9964 18.1815 25.7309 21.2316 23.4813 23.4813C21.2316 25.7309 18.1815 26.9964 15 27ZM15 14.25C14.6022 14.25 14.2206 14.408 13.9393 14.6893C13.658 14.9706 13.5 15.3522 13.5 15.75V20.25C13.5 20.6478 13.658 21.0294 13.9393 21.3107C14.2206 21.592 14.6022 21.75 15 21.75C15.3978 21.75 15.7794 21.592 16.0607 21.3107C16.342 21.0294 16.5 20.6478 16.5 20.25V15.75C16.5 15.3522 16.342 14.9706 16.0607 14.6893C15.7794 14.408 15.3978 14.25 15 14.25ZM15 8.25C14.6292 8.25 14.2667 8.35996 13.9583 8.56599C13.65 8.77202 13.4096 9.06485 13.2677 9.40747C13.1258 9.75008 13.0887 10.1271 13.161 10.4908C13.2334 10.8545 13.412 11.1886 13.6742 11.4508C13.9364 11.713 14.2705 11.8916 14.6342 11.964C14.9979 12.0363 15.3749 11.9992 15.7175 11.8573C16.0601 11.7154 16.353 11.475 16.559 11.1667C16.765 10.8583 16.875 10.4958 16.875 10.125C16.875 9.62772 16.6775 9.1508 16.3258 8.79917C15.9742 8.44754 15.4973 8.25 15 8.25Z" fill="#4DB7D4"/>
</svg>
