<svg width="30" height="30" viewBox="0 0 30 30" fill="none" xmlns="http://www.w3.org/2000/svg">
<path d="M29.113 9.94525C29.113 9.94525 29.113 9.94525 29.113 9.87003C28.054 6.97593 26.1325 4.47723 23.6083 2.71195C21.0842 0.946669 18.0792 0 15 0C11.9208 0 8.91583 0.946669 6.39168 2.71195C3.86754 4.47723 1.946 6.97593 0.886995 9.87003C0.886995 9.87003 0.886995 9.87004 0.886995 9.94525C-0.295665 13.2111 -0.295665 16.7889 0.886995 20.0547C0.886995 20.0547 0.886995 20.0547 0.886995 20.13C1.946 23.0241 3.86754 25.5228 6.39168 27.2881C8.91583 29.0533 11.9208 30 15 30C18.0792 30 21.0842 29.0533 23.6083 27.2881C26.1325 25.5228 28.054 23.0241 29.113 20.13C29.113 20.13 29.113 20.13 29.113 20.0547C30.2957 16.7889 30.2957 13.2111 29.113 9.94525ZM3.33686 18.0088C2.81566 16.0368 2.81566 13.9632 3.33686 11.9912H6.1324C5.89197 13.9899 5.89197 16.0101 6.1324 18.0088H3.33686ZM4.5693 21.0176H6.67348C7.02626 22.3592 7.5305 23.6563 8.17646 24.8838C6.70248 23.8788 5.47033 22.5581 4.5693 21.0176ZM6.67348 8.98245H4.5693C5.45737 7.44659 6.67377 6.12631 8.13137 5.11617C7.50095 6.34562 7.01186 7.64267 6.67348 8.98245ZM13.467 26.5838C11.6209 25.2279 10.3244 23.2519 9.81471 21.0176H13.467V26.5838ZM13.467 18.0088H9.16843C8.88796 16.0127 8.88796 13.9873 9.16843 11.9912H13.467V18.0088ZM13.467 8.98245H9.81471C10.3244 6.74808 11.6209 4.77214 13.467 3.41621V8.98245ZM25.3706 8.98245H23.2664C22.9136 7.64077 22.4094 6.34366 21.7634 5.11617C23.2374 6.1212 24.4695 7.44186 25.3706 8.98245ZM16.4729 3.41621C18.3189 4.77214 19.6154 6.74808 20.1252 8.98245H16.4729V3.41621ZM16.4729 26.5838V21.0176H20.1252C19.6154 23.2519 18.3189 25.2279 16.4729 26.5838ZM20.7715 18.0088H16.4729V11.9912H20.7715C21.0519 13.9873 21.0519 16.0127 20.7715 18.0088ZM21.8085 24.8838C22.4545 23.6563 22.9587 22.3592 23.3115 21.0176H25.4157C24.5146 22.5581 23.2825 23.8788 21.8085 24.8838ZM26.603 18.0088H23.8075C23.9297 17.0106 23.9899 16.0057 23.9878 15C23.9895 13.9943 23.9293 12.9895 23.8075 11.9912H26.603C27.1242 13.9632 27.1242 16.0368 26.603 18.0088Z" fill="#0E9AE5"/>
</svg>
