<svg width="44" height="44" viewBox="0 0 44 44" fill="none" xmlns="http://www.w3.org/2000/svg">
<g clip-path="url(#clip0_1220_22)">
<path d="M30.2447 12.5402L17.7899 24.995L8.78101 20.5618L30.2447 12.5402ZM31.4693 13.7553L23.4382 35.2285L19.0145 26.2101L31.4693 13.7553Z" fill="#7B46D8"/>
<path d="M40.5635 10.1955C37.7212 5.72705 33.3621 2.43416 28.2869 0.921607C23.2116 -0.590944 17.7611 -0.221596 12.9363 1.96181C8.11156 4.14522 4.23654 7.99609 2.023 12.8071C-0.190534 17.6181 -0.593958 23.0663 0.886828 28.1508C2.36761 33.2354 5.63318 37.615 10.0837 40.4853C14.5343 43.3555 19.871 44.5236 25.1136 43.7751C30.3563 43.0266 35.1529 40.4116 38.6224 36.4106C42.0918 32.4096 44.0013 27.2911 44 21.9953C44.008 17.8141 42.8152 13.7186 40.5635 10.1955ZM34.4975 10.5277V10.6321L24.3685 37.7061C24.3109 37.8638 24.2082 38.0009 24.0731 38.1005C23.9381 38.2002 23.7767 38.2578 23.6091 38.2662C23.4472 38.2656 23.2887 38.22 23.1512 38.1345C23.0138 38.049 22.9028 37.927 22.8306 37.7821L17.3817 26.6848L6.2274 21.2358C6.07502 21.1628 5.9477 21.0463 5.86153 20.901C5.77535 20.7557 5.73419 20.5881 5.74325 20.4194C5.75111 20.2505 5.80836 20.0876 5.90792 19.9509C6.00748 19.8142 6.14497 19.7098 6.30334 19.6505L33.3773 9.52146H33.4723C33.526 9.51688 33.58 9.51688 33.6337 9.52146H33.9184L34.0513 9.57842H34.1463L34.2507 9.68284L34.3551 9.78727V9.8822C34.3782 9.92794 34.3972 9.97558 34.4121 10.0246C34.4167 10.0719 34.4167 10.1196 34.4121 10.167C34.4215 10.214 34.4215 10.2624 34.4121 10.3094C34.4629 10.3713 34.4928 10.4477 34.4975 10.5277Z" fill="#7B46D8"/>
</g>
<defs>
<clipPath id="clip0_1220_22">
<rect width="44" height="44" fill="white"/>
</clipPath>
</defs>
</svg>
