<svg xmlns="http://www.w3.org/2000/svg" xmlns:xlink="http://www.w3.org/1999/xlink" width="133" zoomAndPan="magnify" viewBox="0 0 99.75 30.000001" height="40" preserveAspectRatio="xMidYMid meet" version="1.0"><defs><g/></defs><g fill="#545454" fill-opacity="1"><g transform="translate(15.241812, 20.401599)"><g><path d="M 2.453125 -8.453125 C 2.453125 -9.015625 2.546875 -9.578125 2.734375 -10.140625 C 2.929688 -10.710938 3.242188 -11.21875 3.671875 -11.65625 C 4.097656 -12.09375 4.632812 -12.445312 5.28125 -12.71875 C 5.925781 -12.988281 6.703125 -13.125 7.609375 -13.125 C 8.523438 -13.125 9.304688 -12.988281 9.953125 -12.71875 C 10.609375 -12.445312 11.148438 -12.09375 11.578125 -11.65625 C 12.003906 -11.21875 12.316406 -10.71875 12.515625 -10.15625 C 12.710938 -9.601562 12.8125 -9.035156 12.8125 -8.453125 C 12.8125 -7.859375 12.710938 -7.285156 12.515625 -6.734375 C 12.316406 -6.179688 12.003906 -5.679688 11.578125 -5.234375 C 11.148438 -4.796875 10.609375 -4.441406 9.953125 -4.171875 C 9.304688 -3.898438 8.523438 -3.765625 7.609375 -3.765625 C 6.703125 -3.765625 5.925781 -3.898438 5.28125 -4.171875 C 4.632812 -4.441406 4.097656 -4.796875 3.671875 -5.234375 C 3.242188 -5.679688 2.929688 -6.1875 2.734375 -6.75 C 2.546875 -7.3125 2.453125 -7.878906 2.453125 -8.453125 Z M 19.21875 -9.125 L 19.21875 -2.96875 C 19.21875 -2.488281 19.066406 -2.117188 18.765625 -1.859375 C 18.460938 -1.597656 18.109375 -1.46875 17.703125 -1.46875 C 17.273438 -1.46875 16.914062 -1.597656 16.625 -1.859375 C 16.34375 -2.117188 16.203125 -2.488281 16.203125 -2.96875 L 16.203125 -17.328125 C 16.203125 -17.804688 16.34375 -18.179688 16.625 -18.453125 C 16.914062 -18.722656 17.273438 -18.859375 17.703125 -18.859375 C 18.109375 -18.859375 18.460938 -18.722656 18.765625 -18.453125 C 19.066406 -18.179688 19.21875 -17.804688 19.21875 -17.328125 L 19.21875 -11.609375 L 21.453125 -11.609375 C 21.828125 -11.609375 22.128906 -11.476562 22.359375 -11.21875 C 22.585938 -10.96875 22.703125 -10.679688 22.703125 -10.359375 C 22.703125 -9.992188 22.585938 -9.695312 22.359375 -9.46875 C 22.128906 -9.238281 21.828125 -9.125 21.453125 -9.125 Z M 4.0625 -1.59375 C 4.0625 -2.0625 4.210938 -2.425781 4.515625 -2.6875 C 4.816406 -2.945312 5.171875 -3.078125 5.578125 -3.078125 C 6.003906 -3.078125 6.363281 -2.945312 6.65625 -2.6875 C 6.945312 -2.425781 7.09375 -2.0625 7.09375 -1.59375 L 7.09375 -0.859375 C 7.09375 -0.0859375 7.234375 0.507812 7.515625 0.9375 C 7.796875 1.375 8.164062 1.691406 8.625 1.890625 C 9.09375 2.097656 9.628906 2.222656 10.234375 2.265625 C 10.835938 2.316406 11.457031 2.34375 12.09375 2.34375 C 12.570312 2.34375 13.070312 2.304688 13.59375 2.234375 C 14.113281 2.160156 14.625 2.070312 15.125 1.96875 C 15.632812 1.863281 16.101562 1.738281 16.53125 1.59375 C 16.96875 1.457031 17.332031 1.316406 17.625 1.171875 C 17.96875 1.015625 18.328125 0.9375 18.703125 0.9375 C 19.078125 0.945312 19.351562 1.140625 19.53125 1.515625 C 19.726562 1.941406 19.738281 2.304688 19.5625 2.609375 C 19.394531 2.910156 19.101562 3.164062 18.6875 3.375 C 18.195312 3.625 17.664062 3.835938 17.09375 4.015625 C 16.53125 4.191406 15.957031 4.34375 15.375 4.46875 C 14.789062 4.59375 14.21875 4.679688 13.65625 4.734375 C 13.09375 4.796875 12.570312 4.828125 12.09375 4.828125 C 10.9375 4.828125 9.867188 4.75 8.890625 4.59375 C 7.910156 4.4375 7.0625 4.164062 6.34375 3.78125 C 5.625 3.394531 5.0625 2.867188 4.65625 2.203125 C 4.257812 1.535156 4.0625 0.6875 4.0625 -0.34375 Z M 2.109375 -13.984375 C 1.703125 -13.984375 1.382812 -14.097656 1.15625 -14.328125 C 0.925781 -14.554688 0.8125 -14.847656 0.8125 -15.203125 C 0.8125 -15.546875 0.925781 -15.84375 1.15625 -16.09375 C 1.382812 -16.351562 1.703125 -16.484375 2.109375 -16.484375 L 6.1875 -16.484375 L 6.1875 -17.734375 C 6.1875 -18.203125 6.328125 -18.570312 6.609375 -18.84375 C 6.898438 -19.113281 7.257812 -19.25 7.6875 -19.25 C 8.09375 -19.25 8.445312 -19.113281 8.75 -18.84375 C 9.050781 -18.570312 9.203125 -18.203125 9.203125 -17.734375 L 9.203125 -16.484375 L 13.296875 -16.484375 C 13.679688 -16.484375 13.988281 -16.351562 14.21875 -16.09375 C 14.445312 -15.84375 14.5625 -15.546875 14.5625 -15.203125 C 14.5625 -14.847656 14.445312 -14.554688 14.21875 -14.328125 C 13.988281 -14.097656 13.679688 -13.984375 13.296875 -13.984375 Z M 9.921875 -8.453125 C 9.921875 -8.742188 9.878906 -9.023438 9.796875 -9.296875 C 9.710938 -9.578125 9.578125 -9.828125 9.390625 -10.046875 C 9.210938 -10.265625 8.976562 -10.4375 8.6875 -10.5625 C 8.394531 -10.695312 8.035156 -10.765625 7.609375 -10.765625 C 7.222656 -10.765625 6.882812 -10.695312 6.59375 -10.5625 C 6.3125 -10.4375 6.078125 -10.265625 5.890625 -10.046875 C 5.703125 -9.828125 5.5625 -9.582031 5.46875 -9.3125 C 5.382812 -9.039062 5.34375 -8.757812 5.34375 -8.46875 C 5.34375 -8.175781 5.382812 -7.882812 5.46875 -7.59375 C 5.5625 -7.3125 5.703125 -7.0625 5.890625 -6.84375 C 6.078125 -6.625 6.3125 -6.445312 6.59375 -6.3125 C 6.882812 -6.1875 7.222656 -6.125 7.609375 -6.125 C 8.035156 -6.125 8.394531 -6.1875 8.6875 -6.3125 C 8.976562 -6.445312 9.210938 -6.625 9.390625 -6.84375 C 9.578125 -7.0625 9.710938 -7.304688 9.796875 -7.578125 C 9.878906 -7.859375 9.921875 -8.148438 9.921875 -8.453125 Z M 9.921875 -8.453125 "/></g></g></g><g fill="#545454" fill-opacity="1"><g transform="translate(38.245701, 20.401599)"><g><path d="M 8.109375 -2.765625 L 17.40625 -2.765625 L 17.40625 -4.28125 C 17.40625 -4.757812 17.550781 -5.128906 17.84375 -5.390625 C 18.144531 -5.648438 18.503906 -5.78125 18.921875 -5.78125 C 19.328125 -5.78125 19.679688 -5.648438 19.984375 -5.390625 C 20.285156 -5.128906 20.4375 -4.757812 20.4375 -4.28125 L 20.4375 0.03125 C 20.4375 0.988281 20.25 1.773438 19.875 2.390625 C 19.5 3.015625 18.972656 3.503906 18.296875 3.859375 C 17.617188 4.222656 16.8125 4.472656 15.875 4.609375 C 14.9375 4.753906 13.894531 4.828125 12.75 4.828125 C 11.613281 4.828125 10.578125 4.753906 9.640625 4.609375 C 8.703125 4.472656 7.890625 4.222656 7.203125 3.859375 C 6.523438 3.503906 6 3.015625 5.625 2.390625 C 5.25 1.773438 5.0625 0.988281 5.0625 0.03125 L 5.0625 -4.28125 C 5.0625 -4.757812 5.207031 -5.128906 5.5 -5.390625 C 5.800781 -5.648438 6.164062 -5.78125 6.59375 -5.78125 C 7 -5.78125 7.351562 -5.648438 7.65625 -5.390625 C 7.957031 -5.128906 8.109375 -4.757812 8.109375 -4.28125 Z M 9.671875 -15.125 C 9.722656 -14.507812 9.863281 -13.941406 10.09375 -13.421875 C 10.332031 -12.898438 10.632812 -12.425781 11 -12 C 11.375 -11.570312 11.800781 -11.191406 12.28125 -10.859375 C 12.757812 -10.523438 13.257812 -10.242188 13.78125 -10.015625 C 13.882812 -9.960938 14.003906 -9.890625 14.140625 -9.796875 C 14.273438 -9.710938 14.390625 -9.597656 14.484375 -9.453125 C 14.585938 -9.316406 14.65625 -9.15625 14.6875 -8.96875 C 14.71875 -8.78125 14.6875 -8.570312 14.59375 -8.34375 C 14.457031 -8.050781 14.289062 -7.84375 14.09375 -7.71875 C 13.90625 -7.601562 13.710938 -7.535156 13.515625 -7.515625 C 13.316406 -7.503906 13.128906 -7.519531 12.953125 -7.5625 C 12.785156 -7.613281 12.660156 -7.65625 12.578125 -7.6875 C 11.796875 -8.007812 11.03125 -8.476562 10.28125 -9.09375 C 9.53125 -9.707031 8.847656 -10.460938 8.234375 -11.359375 C 7.660156 -10.441406 6.972656 -9.628906 6.171875 -8.921875 C 5.367188 -8.210938 4.476562 -7.613281 3.5 -7.125 C 3.40625 -7.070312 3.269531 -7.015625 3.09375 -6.953125 C 2.925781 -6.890625 2.738281 -6.859375 2.53125 -6.859375 C 2.332031 -6.859375 2.128906 -6.90625 1.921875 -7 C 1.710938 -7.101562 1.535156 -7.300781 1.390625 -7.59375 C 1.273438 -7.820312 1.222656 -8.023438 1.234375 -8.203125 C 1.253906 -8.378906 1.3125 -8.53125 1.40625 -8.65625 C 1.5 -8.789062 1.601562 -8.898438 1.71875 -8.984375 C 1.84375 -9.066406 1.945312 -9.132812 2.03125 -9.1875 C 3.375 -9.851562 4.445312 -10.664062 5.25 -11.625 C 6.0625 -12.59375 6.507812 -13.757812 6.59375 -15.125 L 3.078125 -15.125 C 2.671875 -15.125 2.359375 -15.238281 2.140625 -15.46875 C 1.921875 -15.695312 1.8125 -16 1.8125 -16.375 C 1.8125 -16.71875 1.921875 -17.007812 2.140625 -17.25 C 2.359375 -17.5 2.671875 -17.625 3.078125 -17.625 L 13.140625 -17.625 C 13.523438 -17.625 13.832031 -17.5 14.0625 -17.25 C 14.300781 -17.007812 14.421875 -16.71875 14.421875 -16.375 C 14.421875 -16 14.300781 -15.695312 14.0625 -15.46875 C 13.832031 -15.238281 13.523438 -15.125 13.140625 -15.125 Z M 20.4375 -8.25 C 20.4375 -7.78125 20.285156 -7.410156 19.984375 -7.140625 C 19.679688 -6.878906 19.328125 -6.75 18.921875 -6.75 C 18.503906 -6.75 18.148438 -6.878906 17.859375 -7.140625 C 17.578125 -7.410156 17.4375 -7.78125 17.4375 -8.25 L 17.4375 -17.328125 C 17.4375 -17.804688 17.578125 -18.179688 17.859375 -18.453125 C 18.148438 -18.722656 18.503906 -18.859375 18.921875 -18.859375 C 19.328125 -18.859375 19.679688 -18.722656 19.984375 -18.453125 C 20.285156 -18.179688 20.4375 -17.804688 20.4375 -17.328125 Z M 12.75 2.40625 C 13.5 2.40625 14.164062 2.382812 14.75 2.34375 C 15.332031 2.300781 15.816406 2.195312 16.203125 2.03125 C 16.597656 1.863281 16.894531 1.613281 17.09375 1.28125 C 17.300781 0.945312 17.40625 0.476562 17.40625 -0.125 L 17.40625 -0.34375 L 8.109375 -0.34375 L 8.109375 -0.125 C 8.109375 0.476562 8.207031 0.945312 8.40625 1.28125 C 8.613281 1.613281 8.910156 1.863281 9.296875 2.03125 C 9.691406 2.195312 10.175781 2.300781 10.75 2.34375 C 11.332031 2.382812 12 2.40625 12.75 2.40625 Z M 12.75 2.40625 "/></g></g></g><g fill="#545454" fill-opacity="1"><g transform="translate(61.249591, 20.401599)"><g><path d="M 19.21875 -7.9375 L 19.21875 2.34375 C 19.21875 2.820312 19.066406 3.191406 18.765625 3.453125 C 18.460938 3.710938 18.109375 3.84375 17.703125 3.84375 C 17.273438 3.84375 16.914062 3.710938 16.625 3.453125 C 16.34375 3.191406 16.203125 2.820312 16.203125 2.34375 L 16.203125 -17.328125 C 16.203125 -17.804688 16.34375 -18.179688 16.625 -18.453125 C 16.914062 -18.722656 17.273438 -18.859375 17.703125 -18.859375 C 18.109375 -18.859375 18.460938 -18.722656 18.765625 -18.453125 C 19.066406 -18.179688 19.21875 -17.804688 19.21875 -17.328125 L 19.21875 -10.4375 L 21.453125 -10.4375 C 21.828125 -10.4375 22.128906 -10.304688 22.359375 -10.046875 C 22.585938 -9.796875 22.703125 -9.507812 22.703125 -9.1875 C 22.703125 -8.820312 22.585938 -8.519531 22.359375 -8.28125 C 22.128906 -8.050781 21.828125 -7.9375 21.453125 -7.9375 Z M 14.28125 -2.0625 C 14.050781 -1.78125 13.820312 -1.601562 13.59375 -1.53125 C 13.363281 -1.457031 13.140625 -1.441406 12.921875 -1.484375 C 12.710938 -1.523438 12.523438 -1.597656 12.359375 -1.703125 C 12.203125 -1.804688 12.070312 -1.898438 11.96875 -1.984375 C 11.09375 -2.679688 10.273438 -3.488281 9.515625 -4.40625 C 8.765625 -5.320312 8.128906 -6.296875 7.609375 -7.328125 C 7.035156 -6.210938 6.332031 -5.160156 5.5 -4.171875 C 4.675781 -3.179688 3.789062 -2.320312 2.84375 -1.59375 C 2.757812 -1.53125 2.632812 -1.457031 2.46875 -1.375 C 2.3125 -1.289062 2.132812 -1.238281 1.9375 -1.21875 C 1.738281 -1.207031 1.53125 -1.238281 1.3125 -1.3125 C 1.101562 -1.382812 0.921875 -1.550781 0.765625 -1.8125 C 0.609375 -2.019531 0.519531 -2.222656 0.5 -2.421875 C 0.488281 -2.617188 0.515625 -2.789062 0.578125 -2.9375 C 0.648438 -3.082031 0.726562 -3.210938 0.8125 -3.328125 C 0.90625 -3.441406 0.992188 -3.523438 1.078125 -3.578125 C 2.640625 -4.734375 3.863281 -6.109375 4.75 -7.703125 C 5.644531 -9.304688 6.09375 -11.03125 6.09375 -12.875 L 6.09375 -15.5 C 6.09375 -15.96875 6.238281 -16.335938 6.53125 -16.609375 C 6.832031 -16.878906 7.191406 -17.015625 7.609375 -17.015625 C 8.023438 -17.015625 8.382812 -16.878906 8.6875 -16.609375 C 9 -16.335938 9.15625 -15.96875 9.15625 -15.5 L 9.15625 -12.875 C 9.15625 -11.03125 9.539062 -9.375 10.3125 -7.90625 C 11.09375 -6.4375 12.21875 -5.140625 13.6875 -4.015625 C 13.78125 -3.929688 13.894531 -3.828125 14.03125 -3.703125 C 14.175781 -3.585938 14.289062 -3.441406 14.375 -3.265625 C 14.46875 -3.097656 14.519531 -2.910156 14.53125 -2.703125 C 14.539062 -2.503906 14.457031 -2.289062 14.28125 -2.0625 Z M 14.28125 -2.0625 "/></g></g></g></svg>