<svg width="40" height="40" viewBox="0 0 40 40" fill="none" xmlns="http://www.w3.org/2000/svg">
<g clip-path="url(#clip0_1222_43)">
<path d="M30.8004 8.30205H9.22546C8.99657 8.30205 8.77707 8.39298 8.61522 8.55482C8.45338 8.71666 8.36246 8.93617 8.36246 9.16505V26.2093C8.36246 26.4382 8.45338 26.6577 8.61522 26.8195C8.77707 26.9814 8.99657 27.0723 9.22546 27.0723H12.9191C13.1297 27.0723 13.3316 27.1559 13.4805 27.3048C13.6294 27.4537 13.7131 27.6557 13.7131 27.8662V30.4552L16.9061 27.2621C17.0554 27.114 17.2568 27.0303 17.4671 27.0291H30.8177C31.0466 27.0291 31.2661 26.9382 31.4279 26.7764C31.5898 26.6145 31.6807 26.395 31.6807 26.1661V9.16505C31.6807 9.05025 31.6578 8.93661 31.6134 8.83076C31.5689 8.72492 31.5038 8.629 31.4219 8.54864C31.3399 8.46827 31.2427 8.40506 31.136 8.36272C31.0293 8.32038 30.9152 8.29976 30.8004 8.30205ZM22.5761 22.1963H11.5728C11.3622 22.1963 11.1603 22.1127 11.0114 21.9638C10.8625 21.8149 10.7789 21.6129 10.7789 21.4024C10.7789 21.1918 10.8625 20.9899 11.0114 20.841C11.1603 20.6921 11.3622 20.6084 11.5728 20.6084H22.6019C22.8125 20.6084 23.0145 20.6921 23.1634 20.841C23.3123 20.9899 23.3959 21.1918 23.3959 21.4024C23.3959 21.6129 23.3123 21.8149 23.1634 21.9638C23.0145 22.1127 22.8125 22.1963 22.6019 22.1963H22.5761ZM28.4617 18.1748H11.5728C11.3622 18.1748 11.1603 18.0911 11.0114 17.9422C10.8625 17.7933 10.7789 17.5914 10.7789 17.3808C10.7789 17.1702 10.8625 16.9683 11.0114 16.8194C11.1603 16.6705 11.3622 16.5868 11.5728 16.5868H28.4876C28.6982 16.5868 28.9001 16.6705 29.049 16.8194C29.1979 16.9683 29.2816 17.1702 29.2816 17.3808C29.2816 17.5914 29.1979 17.7933 29.049 17.9422C28.9001 18.0911 28.6982 18.1748 28.4876 18.1748H28.4617ZM28.4617 14.1532H11.5728C11.3622 14.1532 11.1603 14.0695 11.0114 13.9206C10.8625 13.7717 10.7789 13.5698 10.7789 13.3592C10.7789 13.1487 10.8625 12.9467 11.0114 12.7978C11.1603 12.6489 11.3622 12.5653 11.5728 12.5653H28.4876C28.6982 12.5653 28.9001 12.6489 29.049 12.7978C29.1979 12.9467 29.2816 13.1487 29.2816 13.3592C29.2816 13.5698 29.1979 13.7717 29.049 13.9206C28.9001 14.0695 28.6982 14.1532 28.4876 14.1532H28.4617Z" fill="#FF385C"/>
<path d="M38.8522 13.3074C37.1756 8.56368 33.7794 4.62208 29.3356 2.2626C24.8919 -0.0968901 19.7243 -0.702353 14.8555 0.566014C9.98664 1.83438 5.77129 4.88417 3.04353 9.11189C0.31578 13.3396 -0.725631 18.4372 0.12537 23.3961C0.976371 28.3549 3.65778 32.8137 7.63901 35.89C11.6202 38.9664 16.6112 40.4363 21.6244 40.0088C26.6375 39.5813 31.3075 37.2875 34.7104 33.5815C38.1132 29.8754 40.0009 25.027 40 19.9957C40.0009 17.7172 39.6128 15.4553 38.8522 13.3074ZM33.2945 26.2524C33.2922 26.9132 33.0287 27.5463 32.5615 28.0135C32.0943 28.4807 31.4612 28.7442 30.8004 28.7465H17.7864L13.4714 33.0615C13.3987 33.1364 13.3114 33.1957 13.2149 33.2358C13.1185 33.2759 13.0149 33.2958 12.9105 33.2945C12.8066 33.2962 12.7036 33.2756 12.6084 33.2341C12.4623 33.1752 12.3373 33.0738 12.2496 32.943C12.1618 32.8122 12.1155 32.658 12.1165 32.5005V28.7465H9.21683C8.55606 28.7442 7.923 28.4807 7.45577 28.0135C6.98853 27.5463 6.72503 26.9132 6.72276 26.2524V9.16505C6.72504 8.50508 6.98882 7.87292 7.4563 7.40706C7.92378 6.94119 8.55685 6.67961 9.21683 6.67961H30.7918C31.4518 6.67961 32.0848 6.94119 32.5523 7.40706C33.0198 7.87292 33.2836 8.50508 33.2859 9.16505L33.2945 26.2524Z" fill="#FF385C"/>
</g>
<defs>
<clipPath id="clip0_1222_43">
<rect width="40" height="40" fill="white"/>
</clipPath>
</defs>
</svg>
