<svg width="40" height="40" viewBox="0 0 40 40" fill="none" xmlns="http://www.w3.org/2000/svg">
<g clip-path="url(#clip0_1222_33)">
<path d="M20 40C31.0457 40 40 31.0457 40 20C40 8.9543 31.0457 0 20 0C8.9543 0 0 8.9543 0 20C0 31.0457 8.9543 40 20 40Z" fill="#181D33"/>
<path d="M32.2563 8.36249H7.74375C7.2625 8.36249 6.875 8.74999 6.875 9.22499V25.8312C6.875 26.5937 7.88125 26.7 8.875 26.7H16.4625L15.6813 29.6312H14.325C14.2979 29.6302 14.2709 29.6353 14.246 29.6461C14.2211 29.657 14.199 29.6732 14.1813 29.6937C14.1375 29.7312 14.1188 29.7812 14.125 29.8375L14.1625 31.4437C14.1687 31.55 14.25 31.6375 14.3625 31.6375H25.6875C25.7437 31.6375 25.7938 31.6125 25.8375 31.575C25.875 31.5312 25.8938 31.4812 25.8938 31.425L25.85 29.825C25.85 29.7125 25.7625 29.6312 25.65 29.6312H24.3313L23.5125 26.7H31.125C32.1125 26.7 33.125 26.5937 33.125 25.8312V9.22499C33.125 8.74999 32.7375 8.36249 32.2563 8.36249ZM19.0062 24.5875C19.0062 24.0375 19.4562 23.5937 20 23.5937C20.5438 23.5937 21 24.0437 21 24.5875C21 25.1375 20.55 25.5875 20 25.5875C19.45 25.5875 19.0062 25.1375 19.0062 24.5875ZM22.4375 26.7937L23.2312 29.6312H16.775L17.5563 26.7H22.4125L22.4375 26.7937ZM31.2875 10.1312V22.5437H8.7125V10.1312H31.2875Z" fill="white"/>
</g>
<defs>
<clipPath id="clip0_1222_33">
<rect width="40" height="40" fill="white"/>
</clipPath>
</defs>
</svg>
