<svg width="60" height="60" viewBox="0 0 60 60" fill="none" xmlns="http://www.w3.org/2000/svg">
<path opacity="0.4" d="M30 60C46.5684 60 60 46.5687 60 30C60 13.4315 46.5684 0 30 0C13.4314 0 0 13.4315 0 30C0 46.5687 13.4314 60 30 60Z" fill="#292D32"/>
<path d="M30 14.7898C23.79 14.7898 18.75 19.8298 18.75 26.0397C18.75 32.1297 23.52 37.0797 29.85 37.2597H30.12H30.33H30.39C36.45 37.0497 41.22 32.1297 41.25 26.0397C41.25 19.8298 36.21 14.7898 30 14.7898Z" fill="#292D32"/>
<path d="M50.3421 52.05C45.0021 56.97 37.8621 60 30.0021 60C22.1421 60 15.0021 56.97 9.66211 52.05C10.3821 49.3199 12.3321 46.8299 15.1821 44.9099C23.3721 39.4499 36.6921 39.4499 44.8221 44.9099C47.7021 46.8299 49.6221 49.3199 50.3421 52.05Z" fill="#292D32"/>
</svg>
