<svg width="80" height="80" viewBox="0 0 80 80" fill="none" xmlns="http://www.w3.org/2000/svg">
<path opacity="0.4" d="M40 80C62.0912 80 80 62.0916 80 40C80 17.9086 62.0912 0 40 0C17.9086 0 0 17.9086 0 40C0 62.0916 17.9086 80 40 80Z" fill="#292D32"/>
<path d="M40 19.7197C31.72 19.7197 25 26.4397 25 34.7195C25 42.8395 31.36 49.4395 39.8 49.6795H40.16H40.44H40.52C48.6 49.3995 54.96 42.8395 55 34.7195C55 26.4397 48.28 19.7197 40 19.7197Z" fill="#292D32"/>
<path d="M67.1228 69.3999C60.0028 75.9599 50.4828 79.9999 40.0028 79.9999C29.5228 79.9999 20.0028 75.9599 12.8828 69.3999C13.8428 65.7599 16.4428 62.4399 20.2428 59.8799C31.1628 52.5999 48.9228 52.5999 59.7628 59.8799C63.6028 62.4399 66.1628 65.7599 67.1228 69.3999Z" fill="#292D32"/>
</svg>
