<svg width="27" height="28" viewBox="0 0 27 28" fill="none" xmlns="http://www.w3.org/2000/svg">
<path d="M1.92953 27.4286C1.59825 27.4278 1.27282 27.3606 0.984608 27.2336C0.686734 27.1034 0.438698 26.9139 0.26589 26.6846C0.0930817 26.4553 0.00170688 26.1944 0.00111803 25.9286V3.92359C-0.0249508 3.02406 0.405752 2.15278 1.19988 1.49857C1.99401 0.844364 3.0876 0.459931 4.24362 0.428589H22.7564C23.9124 0.459931 25.006 0.844364 25.8001 1.49857C26.5942 2.15278 27.025 3.02406 26.9989 3.92359V25.9286C26.9969 26.1904 26.9068 26.4472 26.7376 26.6735C26.5685 26.8998 26.3261 27.0877 26.0347 27.2186C25.7415 27.3502 25.409 27.4196 25.0705 27.4196C24.732 27.4196 24.3994 27.3502 24.1063 27.2186L13.1722 22.4036L2.89374 27.2036C2.60361 27.3437 2.27087 27.4213 1.92953 27.4286Z" fill="#B0B8C0"/>
</svg>
