<svg width="40" height="40" viewBox="0 0 40 40" fill="none" xmlns="http://www.w3.org/2000/svg">
<path d="M39.3314 1.9506C39.2493 1.63945 39.0856 1.3556 38.8572 1.12812C38.6287 0.900628 38.3436 0.737662 38.0311 0.655894C34.2903 -0.311333 30.3512 -0.206994 26.6674 0.956898C22.9835 2.12079 19.7047 4.29691 17.2083 7.23473L15.1731 9.63892L10.4242 8.49856C9.26935 8.09735 8.0077 8.12585 6.87231 8.57879C5.73693 9.03173 4.80453 9.8785 4.24738 10.9627L0.23527 18.0445C0.094796 18.2925 0.0148471 18.5699 0.00187735 18.8543C-0.0110924 19.1387 0.0432805 19.4221 0.160606 19.6817C0.277932 19.9414 0.454924 20.1699 0.677293 20.3488C0.899661 20.5278 1.16118 20.6522 1.44073 20.712L7.04491 21.9086C6.57034 23.3474 6.23149 24.8271 6.03276 26.3284C5.99664 26.6041 6.02456 26.8843 6.11435 27.1475C6.20415 27.4106 6.35343 27.6498 6.55069 27.8465L12.2041 33.4756C12.3736 33.6445 12.5749 33.7784 12.7965 33.8697C13.018 33.961 13.2555 34.0079 13.4953 34.0077C13.5463 34.0077 13.5992 34.0059 13.6521 34.0004C15.194 33.8625 16.7172 33.5643 18.1967 33.1106L19.3712 38.5655C19.4312 38.8438 19.5562 39.1042 19.7359 39.3256C19.9156 39.547 20.1451 39.7233 20.4059 39.8401C20.6666 39.9569 20.9513 40.011 21.2369 39.9981C21.5226 39.9852 21.8011 39.9056 22.0502 39.7657L29.1717 35.7672C30.1742 35.1608 30.9573 34.2529 31.408 33.1746C31.8587 32.0963 31.9537 30.9032 31.6792 29.7677L30.461 24.7559L32.7169 22.6913C35.6781 20.2122 37.8716 16.9469 39.0422 13.2752C40.2128 9.60356 40.3143 5.67643 39.3314 1.9506ZM4.62853 17.6777L7.46618 12.6659C7.64276 12.326 7.94321 12.0661 8.30598 11.9395C8.66876 11.8129 9.06642 11.8292 9.41752 11.985L12.5506 12.7404L11.3652 14.1422C10.241 15.4833 9.26854 16.9435 8.46556 18.4967L4.62853 17.6777ZM27.3699 32.6076L22.4186 35.3895L21.6344 31.7488C23.2225 30.9603 24.7021 29.9716 26.0368 28.8071L27.3918 27.5668L28.1285 30.5884C28.2238 30.9619 28.2022 31.3554 28.0666 31.7163C27.9311 32.0772 27.6879 32.3882 27.3699 32.6076ZM30.3151 19.9602L23.5948 26.1087C20.9353 28.3988 17.6549 29.8544 14.1664 30.2924L9.78043 25.9271C10.3694 22.4443 11.8809 19.1809 14.1591 16.4738L17.2211 12.8548C17.2719 12.8021 17.3194 12.7463 17.3633 12.6877L19.9803 9.59171C21.9153 7.31623 24.4222 5.59283 27.2449 4.59748C30.0675 3.60214 33.105 3.37051 36.047 3.92625C36.6184 6.86473 36.388 9.90202 35.3799 12.7217C34.3718 15.5415 32.6228 18.0423 30.3151 19.9602ZM28.6319 8.76731C28.0908 8.76731 27.5619 8.92706 27.1121 9.22635C26.6622 9.52564 26.3116 9.95104 26.1046 10.4487C25.8975 10.9465 25.8433 11.4941 25.9489 12.0225C26.0544 12.5508 26.315 13.0362 26.6975 13.4171C27.0801 13.798 27.5675 14.0574 28.0982 14.1625C28.6288 14.2676 29.1788 14.2137 29.6787 14.0075C30.1786 13.8014 30.6058 13.4523 30.9064 13.0043C31.2069 12.5564 31.3674 12.0298 31.3674 11.4911C31.3674 10.7687 31.0792 10.0759 30.5662 9.56509C30.0532 9.05428 29.3574 8.76731 28.6319 8.76731Z" fill="#5858E2"/>
</svg>
