<svg width="24" height="30" viewBox="0 0 24 30" fill="none" xmlns="http://www.w3.org/2000/svg">
<path d="M22.5 27.2727H21V24.9995C20.9953 24.2192 20.8433 23.4453 20.5506 22.7117C20.5343 22.6717 20.517 22.6346 20.4968 22.5964C20.2539 21.9943 19.9182 21.4265 19.5 20.91L17.4001 18.3638C16.8175 17.6545 16.5019 16.7934 16.5 15.9082V14.5312C16.5034 13.447 16.9769 12.4077 17.8176 11.6388L18.8034 10.7426C19.9489 9.69563 20.6847 8.33587 20.8979 6.87205C20.8987 6.85308 20.9099 6.83726 20.9099 6.81811L20.9057 6.79939C20.9578 6.50904 20.9893 6.21594 21 5.9219V2.72727H22.5C22.8978 2.72727 23.2794 2.5836 23.5607 2.32787C23.842 2.07214 24 1.7253 24 1.36364C24 1.00198 23.842 0.655131 23.5607 0.3994C23.2794 0.143669 22.8978 0 22.5 0H1.50001C1.10219 0 0.720659 0.143669 0.439354 0.3994C0.15805 0.655131 1.50204e-05 1.00198 1.50204e-05 1.36364C1.50204e-05 1.7253 0.15805 2.07214 0.439354 2.32787C0.720659 2.5836 1.10219 2.72727 1.50001 2.72727H3.00001V5.9219C3.01067 6.21594 3.04217 6.50904 3.09432 6.79939L3.09009 6.81818C3.09009 6.83727 3.10125 6.85315 3.10209 6.87211C3.31532 8.33594 4.05112 9.69569 5.19654 10.7426L6.18238 11.6389C7.02312 12.4078 7.49655 13.447 7.49999 14.5312V15.9082C7.49804 16.7933 7.18268 17.6543 6.60058 18.3638L4.49926 20.9099C4.08113 21.4267 3.74561 21.9947 3.50271 22.597C3.48276 22.6348 3.46563 22.6715 3.44943 22.7111C3.15671 23.4449 3.0047 24.219 3 24.9995V27.2727H1.5C1.10217 27.2727 0.720644 27.4164 0.439339 27.6721C0.158035 27.9279 0 28.2747 0 28.6364C0 28.998 0.158035 29.3449 0.439339 29.6006C0.720644 29.8563 1.10217 30 1.5 30H22.5C22.8978 30 23.2793 29.8563 23.5606 29.6006C23.8419 29.3449 24 28.998 24 28.6364C24 28.2747 23.8419 27.9279 23.5606 27.6721C23.2793 27.4164 22.8978 27.2727 22.5 27.2727ZM6 5.45455V2.72727H18V5.45455H6ZM7.31762 8.81437C7.10627 8.62133 6.91686 8.40941 6.75229 8.18182H17.2477C17.0831 8.40941 16.8937 8.62133 16.6824 8.81437L15.6965 9.71059C14.5265 10.768 13.7762 12.149 13.5637 13.6364H10.4362C10.2238 12.149 9.47352 10.7679 8.30345 9.71046L7.31762 8.81437ZM9.00073 19.9991C9.86866 18.9418 10.3833 17.6797 10.4831 16.3636H13.5168C13.6166 17.6799 14.1315 18.942 15 19.9991L16.5002 21.8182H7.49944L9.00073 19.9991ZM18 27.2727H6V24.9995C6.00417 24.8476 6.0178 24.696 6.04083 24.5455H17.9592C17.9822 24.696 17.9958 24.8476 18 24.9995V27.2727Z" fill="#FFE4C9"/>
</svg>
