<svg width="29" height="29" viewBox="0 0 29 29" fill="none" xmlns="http://www.w3.org/2000/svg">
<path d="M28.1192 24.6364L22.6665 19.1846C22.4204 18.9385 22.0867 18.8018 21.7367 18.8018H20.8452C22.3547 16.8715 23.2517 14.4436 23.2517 11.8025C23.2517 5.5195 18.1599 0.428589 11.8758 0.428589C5.59178 0.428589 0.5 5.5195 0.5 11.8025C0.5 18.0855 5.59178 23.1764 11.8758 23.1764C14.5174 23.1764 16.9457 22.2796 18.8763 20.7704V21.6617C18.8763 22.0116 19.0131 22.3452 19.2592 22.5913L24.7119 28.0431C25.226 28.5571 26.0573 28.5571 26.566 28.0431L28.1137 26.4956C28.6278 25.9816 28.6278 25.1504 28.1192 24.6364ZM11.8758 18.8018C8.00914 18.8018 4.87532 15.674 4.87532 11.8025C4.87532 7.93645 8.00367 4.80316 11.8758 4.80316C15.7425 4.80316 18.8763 7.93098 18.8763 11.8025C18.8763 15.6685 15.748 18.8018 11.8758 18.8018Z" fill="#231F20"/>
</svg>
