<svg width="29" height="29" viewBox="0 0 29 29" fill="none" xmlns="http://www.w3.org/2000/svg">
<path d="M10.6842 3.0526H6.10529L0.763184 9.92102H8.39476L10.6842 3.0526Z" fill="#BDDDF4"/>
<path d="M28.2367 9.92102L22.8946 3.0526H18.3157L20.6051 9.92102H28.2367Z" fill="#5DADEC"/>
<path d="M20.6053 9.92107H28.2368L14.5 25.9474L20.6053 9.92107Z" fill="#4289C1"/>
<path d="M8.39476 9.92107H0.763184L14.5 25.9474L8.39476 9.92107Z" fill="#8CCAF7"/>
<path d="M10.6842 3.0526L8.39478 9.92102H20.6053L18.3158 3.0526H10.6842Z" fill="#8CCAF7"/>
<path d="M14.5 25.9474L8.39478 9.92107H20.6053L14.5 25.9474Z" fill="#5DADEC"/>
<path d="M10.6842 3.0526H6.10529L0.763184 9.92102H8.39476L10.6842 3.0526Z" fill="#BDDDF4"/>
<path d="M28.2367 9.92102L22.8946 3.0526H18.3157L20.6051 9.92102H28.2367Z" fill="#5DADEC"/>
<path d="M20.6053 9.92107H28.2368L14.5 25.9474L20.6053 9.92107Z" fill="#4289C1"/>
<path d="M8.39476 9.92107H0.763184L14.5 25.9474L8.39476 9.92107Z" fill="#8CCAF7"/>
<path d="M10.6842 3.0526L8.39478 9.92102H20.6053L18.3158 3.0526H10.6842Z" fill="#8CCAF7"/>
<path d="M14.5 25.9474L8.39478 9.92107H20.6053L14.5 25.9474Z" fill="#5DADEC"/>
</svg>
