<svg width="40" height="40" viewBox="0 0 40 40" fill="none" xmlns="http://www.w3.org/2000/svg">
<path d="M36.3532 4.23747C34.2326 1.84078 31.4216 0.377979 28.4279 0.113299C25.4342 -0.15138 22.4552 0.799513 20.0291 2.79421C17.4837 0.660084 14.3156 -0.307632 11.1627 0.0859391C8.00972 0.47951 5.10617 2.20513 3.03671 4.91531C0.967248 7.62549 -0.114396 11.1189 0.00959325 14.6921C0.133582 18.2652 1.45399 21.6527 3.70493 24.1724L16.1281 38.1991C17.1684 39.3532 18.5695 40 20.0291 40C21.4887 40 22.8898 39.3532 23.9301 38.1991L36.3532 24.1724C38.689 21.5233 40 17.94 40 14.2049C40 10.4699 38.689 6.88659 36.3532 4.23747ZM33.5325 21.0604L21.1094 35.0645C20.968 35.2254 20.7997 35.3531 20.6143 35.4403C20.4289 35.5275 20.23 35.5724 20.0291 35.5724C19.8282 35.5724 19.6293 35.5275 19.4439 35.4403C19.2584 35.3531 19.0902 35.2254 18.9488 35.0645L6.52565 20.9928C4.95676 19.185 4.07825 16.7565 4.07825 14.2275C4.07825 11.6985 4.95676 9.27004 6.52565 7.46224C8.12436 5.68295 10.2805 4.68526 12.5272 4.68526C14.7738 4.68526 16.93 5.68295 18.5287 7.46224C18.7147 7.67361 18.9359 7.84137 19.1797 7.95586C19.4235 8.07035 19.685 8.12929 19.9491 8.12929C20.2132 8.12929 20.4746 8.07035 20.7184 7.95586C20.9622 7.84137 21.1834 7.67361 21.3694 7.46224C22.9681 5.68295 25.1243 4.68526 27.3709 4.68526C29.6176 4.68526 31.7738 5.68295 33.3725 7.46224C34.9629 9.24635 35.8703 11.6616 35.9002 14.1907C35.9301 16.7198 35.0802 19.1615 33.5325 20.9928V21.0604Z" fill="#FF385C"/>
</svg>
