<svg width="30" height="30" viewBox="0 0 30 30" fill="none" xmlns="http://www.w3.org/2000/svg">
<path d="M29.9497 11.3425C29.8551 11.0557 29.683 10.8038 29.4544 10.6173C29.2257 10.4309 28.9502 10.3179 28.6614 10.292L20.138 8.99063L16.3182 0.88448C16.1956 0.61939 16.0041 0.395825 15.7656 0.239396C15.5272 0.0829664 15.2515 0 14.9701 0C14.6887 0 14.413 0.0829664 14.1745 0.239396C13.9361 0.395825 13.7446 0.61939 13.6219 0.88448L9.8021 8.97495L1.2787 10.292C1.00147 10.3332 0.740823 10.455 0.526354 10.6435C0.311885 10.8319 0.152177 11.0795 0.0653557 11.3582C-0.0141187 11.6305 -0.0212505 11.9203 0.0447254 12.1965C0.110701 12.4728 0.247295 12.725 0.439846 12.9261L6.62643 19.1978L5.12846 28.1036C5.06799 28.399 5.09035 28.7064 5.19285 28.9889C5.29536 29.2713 5.47365 29.5167 5.70627 29.6956C5.93889 29.8745 6.21594 29.9793 6.50409 29.9972C6.79223 30.0152 7.0792 29.9456 7.33047 29.7969L14.9701 25.6106L22.6097 29.7969C22.8199 29.9211 23.0574 29.9859 23.2987 29.9851C23.616 29.9863 23.9255 29.882 24.1825 29.6872C24.4149 29.5129 24.5948 29.2727 24.701 28.9949C24.8072 28.717 24.8352 28.4132 24.7817 28.1193L23.2838 19.2135L29.4703 12.9418C29.6866 12.75 29.8465 12.4979 29.9313 12.2148C30.0162 11.9317 30.0225 11.6292 29.9497 11.3425ZM20.7372 17.6142C20.5638 17.7904 20.4338 18.008 20.3581 18.2482C20.2825 18.4885 20.2635 18.7444 20.3028 18.994L21.3813 25.5792L15.749 22.4434C15.5301 22.33 15.2892 22.2711 15.045 22.2711C14.8007 22.2711 14.5598 22.33 14.3409 22.4434L8.70859 25.5792L9.78712 18.994C9.82643 18.7444 9.80745 18.4885 9.7318 18.2482C9.65616 18.008 9.52609 17.7904 9.35272 17.6142L4.85883 12.9104L11.1652 11.954C11.4079 11.9187 11.6386 11.8216 11.8371 11.6712C12.0356 11.5209 12.1958 11.3219 12.3037 11.0916L14.9701 5.11786L17.7862 11.1073C17.8942 11.3376 18.0544 11.5366 18.2529 11.6869C18.4513 11.8373 18.682 11.9343 18.9247 11.9697L25.2311 12.9261L20.7372 17.6142Z" fill="#FDE767"/>
</svg>
