<svg width="25" height="28" viewBox="0 0 25 28" fill="none" xmlns="http://www.w3.org/2000/svg">
<path d="M12.5 13.7143C16.2875 13.7143 19.3571 10.6446 19.3571 6.85714C19.3571 3.06964 16.2875 0 12.5 0C8.7125 0 5.64286 3.06964 5.64286 6.85714C5.64286 10.6446 8.7125 13.7143 12.5 13.7143ZM17.3 15.4286H16.4054C15.2161 15.975 13.8929 16.2857 12.5 16.2857C11.1071 16.2857 9.78929 15.975 8.59464 15.4286H7.7C3.725 15.4286 0.5 18.6536 0.5 22.6286V24.8571C0.5 26.2768 1.65179 27.4286 3.07143 27.4286H21.9286C23.3482 27.4286 24.5 26.2768 24.5 24.8571V22.6286C24.5 18.6536 21.275 15.4286 17.3 15.4286Z" fill="#B0B8C0"/>
</svg>
