<svg width="30" height="30" viewBox="0 0 30 30" fill="none" xmlns="http://www.w3.org/2000/svg">
<path d="M1.46248 21.4698C0.526008 22.4075 0 23.6785 0 25.0037C0 26.3289 0.526008 27.5999 1.46248 28.5375C2.40012 29.474 3.67113 30 4.99633 30C6.32153 30 7.59254 29.474 8.53018 28.5375C9.41351 27.5895 9.89441 26.3357 9.87155 25.0402C9.84869 23.7447 9.32387 22.5086 8.40765 21.5924C7.49142 20.6761 6.25534 20.1513 4.95981 20.1285C3.66428 20.1056 2.41045 20.5865 1.46248 21.4698ZM6.17984 26.1872C5.86595 26.5011 5.44023 26.6774 4.99633 26.6774C4.55243 26.6774 4.12671 26.5011 3.81283 26.1872C3.49894 25.8733 3.3226 25.4476 3.3226 25.0037C3.3226 24.5598 3.49894 24.134 3.81283 23.8202C3.96779 23.6639 4.15215 23.5399 4.35528 23.4553C4.55841 23.3707 4.77628 23.3271 4.99633 23.3271C5.21639 23.3271 5.43426 23.3707 5.63739 23.4553C5.84052 23.5399 6.02488 23.6639 6.17984 23.8202C6.33608 23.9751 6.46009 24.1595 6.54471 24.3626C6.62934 24.5657 6.67291 24.7836 6.67291 25.0037C6.67291 25.2237 6.62934 25.4416 6.54471 25.6447C6.46009 25.8479 6.33608 26.0322 6.17984 26.1872ZM4.99633 13.3353C4.55424 13.3353 4.13026 13.5109 3.81765 13.8235C3.50504 14.1361 3.32942 14.5601 3.32942 15.0022C3.32942 15.4443 3.50504 15.8683 3.81765 16.1809C4.13026 16.4935 4.55424 16.6691 4.99633 16.6691C7.20679 16.6691 9.32672 17.5472 10.8898 19.1102C12.4528 20.6733 13.3309 22.7932 13.3309 25.0037C13.3309 25.4458 13.5065 25.8697 13.8191 26.1824C14.1317 26.495 14.5557 26.6706 14.9978 26.6706C15.4399 26.6706 15.8639 26.495 16.1765 26.1824C16.4891 25.8697 16.6647 25.4458 16.6647 25.0037C16.6647 21.909 15.4354 18.9411 13.2471 16.7529C11.0589 14.5646 8.09098 13.3353 4.99633 13.3353ZM4.99633 6.66764C4.55424 6.66764 4.13026 6.84327 3.81765 7.15587C3.50504 7.46848 3.32942 7.89246 3.32942 8.33456C3.32942 8.77665 3.50504 9.20063 3.81765 9.51324C4.13026 9.82585 4.55424 10.0015 4.99633 10.0015C8.97516 10.0015 12.791 11.5821 15.6045 14.3955C18.4179 17.209 19.9985 21.0248 19.9985 25.0037C19.9985 25.4458 20.1742 25.8697 20.4868 26.1824C20.7994 26.495 21.2234 26.6706 21.6654 26.6706C22.1075 26.6706 22.5315 26.495 22.8441 26.1824C23.1567 25.8697 23.3324 25.4458 23.3324 25.0037C23.3194 20.1429 21.3909 15.4832 17.9649 12.0351C14.5168 8.60913 9.85707 6.68056 4.99633 6.66764ZM22.6823 7.31774C17.9795 2.64629 11.6249 0.0169762 4.99633 0C4.55424 0 4.13026 0.175621 3.81765 0.488227C3.50504 0.800834 3.32942 1.22482 3.32942 1.66691C3.32942 2.109 3.50504 2.53299 3.81765 2.84559C4.13026 3.1582 4.55424 3.33382 4.99633 3.33382C10.7435 3.33382 16.2553 5.61689 20.3192 9.68077C24.3831 13.7447 26.6662 19.2565 26.6662 25.0037C26.6662 25.4458 26.8418 25.8697 27.1544 26.1824C27.467 26.495 27.891 26.6706 28.3331 26.6706C28.7752 26.6706 29.1992 26.495 29.5118 26.1824C29.8244 25.8697 30 25.4458 30 25.0037C29.983 18.3751 27.3537 12.0205 22.6823 7.31774Z" fill="#6AAB7E"/>
</svg>
